<svg xmlns="http://www.w3.org/2000/svg" width="500" height="500" viewBox="0 0 500 500">
<g>
<path d="M 33.17 133.52 C33.39,136.75 33.51,136.85 35.20,135.32 C36.19,134.42 37.00,133.12 37.00,132.43 L 37.00 289.56 C37.00,286.56 35.40,285.42 33.46,287.04 C33.03,287.39 32.67,288.30 32.41,289.42 C32.17,276.28 32.00,245.86 32.00,210.83 L 32.00 126.00 L 406.00 126.00 L 406.00 146.00 L 403.50 146.00 C401.06,146.00 401.00,145.83 401.00,138.50 L 401.00 131.00 L 37.75 131.00 C37.90,130.87 38.07,130.77 38.25,130.71 C39.19,130.36 39.22,129.95 38.36,129.03 C37.49,128.11 36.70,128.09 35.08,128.96 C33.45,129.83 33.00,130.91 33.17,133.52 ZM 182.00 218.03 C182.00,217.50 181.36,217.31 180.58,217.61 C179.75,217.93 177.48,216.48 175.14,214.14 C174.52,213.52 173.94,212.87 173.41,212.21 C173.83,212.58 174.21,212.76 174.45,212.68 C175.74,212.25 177.04,206.00 175.84,206.00 C175.30,206.00 175.30,205.29 175.85,204.25 C176.36,203.29 176.61,199.48 176.42,195.79 C176.22,192.10 176.50,188.81 177.03,188.48 C177.56,188.15 178.00,187.08 178.00,186.11 C178.00,185.13 178.68,184.26 179.50,184.17 L 182.50 183.83 C184.54,183.61 184.42,181.00 182.37,181.00 C182.14,181.00 181.91,181.02 181.67,181.05 C184.52,180.00 187.62,179.70 190.72,180.23 C190.43,180.43 190.33,180.84 190.33,181.45 C190.33,182.83 193.20,184.38 197.50,185.33 C198.60,185.57 199.56,185.82 199.64,185.88 C199.72,185.95 200.08,185.23 200.45,184.28 C200.81,183.33 200.80,182.87 200.43,183.24 C200.32,183.35 200.07,183.37 199.72,183.33 C199.93,183.22 200.00,182.94 200.00,182.52 C200.00,181.32 201.35,181.00 206.50,181.00 L 213.00 181.00 L 213.00 218.00 L 206.50 218.00 C200.70,218.00 200.00,217.79 200.00,216.03 C200.00,214.16 199.81,214.19 196.36,216.53 C195.92,216.83 195.49,217.10 195.07,217.33 C195.61,216.93 196.00,216.47 196.00,216.08 C196.00,214.94 192.69,215.24 191.82,216.45 C191.44,216.98 191.35,217.76 191.63,218.20 C191.75,218.40 192.01,218.48 192.35,218.47 C190.95,218.85 189.39,219.00 187.36,219.00 C184.41,219.00 182.00,218.56 182.00,218.03 ZM 159.58 227.17 C159.37,229.89 159.66,230.73 160.77,230.56 C161.60,230.44 162.42,229.71 163.11,228.70 C162.22,230.51 160.92,231.73 159.00,233.34 C158.55,233.73 157.99,234.13 157.38,234.51 C159.31,233.27 160.48,232.07 159.25,232.03 C158.56,232.01 157.89,232.08 157.75,232.17 C156.82,232.80 152.94,229.59 153.35,228.52 C153.63,227.79 153.28,226.40 152.58,225.44 C151.38,223.79 151.14,223.79 148.92,225.34 C147.59,226.27 145.83,226.79 143.95,226.90 C148.14,226.53 151.60,223.77 152.51,219.25 C153.23,215.63 153.21,215.50 149.68,217.33 C151.18,216.10 151.03,214.26 148.88,214.92 C148.12,215.15 144.03,215.40 139.79,215.47 C132.96,215.58 130.28,216.13 131.63,217.17 C130.07,216.32 128.63,215.18 127.38,213.81 C128.81,214.80 130.43,214.51 129.54,213.07 C128.52,211.41 128.19,205.00 129.13,205.00 C129.68,205.00 129.81,204.51 129.44,203.91 C129.07,203.31 128.62,199.43 128.44,195.29 C128.25,191.16 127.89,187.55 127.62,187.29 C127.10,186.77 126.30,187.12 125.45,188.08 C126.71,186.22 128.27,184.62 130.03,183.35 C130.01,183.39 130.00,183.42 130.00,183.45 C130.00,183.75 131.59,184.00 133.53,184.00 C136.76,184.00 139.22,181.89 137.73,180.40 C137.36,180.02 134.38,181.01 132.23,181.99 C135.16,180.45 138.50,179.74 141.93,180.06 C140.65,180.35 140.77,181.63 142.35,183.20 C144.00,184.86 149.63,185.40 150.51,183.99 C150.76,183.58 150.04,182.90 148.91,182.21 C151.57,183.56 152.50,184.05 152.83,183.78 C153.03,183.62 153.00,183.19 153.00,182.50 C153.00,181.33 154.33,181.00 159.00,181.00 L 165.00 181.00 L 165.00 188.93 L 162.75 190.13 C159.48,191.87 158.25,193.95 158.75,196.90 C158.99,198.33 159.42,201.30 159.71,203.50 C159.99,205.70 160.68,208.06 161.23,208.75 C161.79,209.44 162.86,210.00 163.62,210.00 C164.71,210.00 165.00,207.75 165.00,199.46 L 165.00 203.05 C165.00,212.18 164.96,218.05 164.60,222.08 C164.49,221.88 164.34,221.71 164.15,221.59 C162.43,220.53 159.86,223.67 159.58,227.17 ZM 307.01 209.04 C309.97,209.78 311.99,209.22 312.02,207.64 C312.03,206.82 312.24,206.83 312.78,207.68 C313.23,208.39 316.72,208.95 321.51,209.09 C328.28,209.29 329.55,209.07 329.82,207.66 C330.11,206.20 328.89,206.00 319.57,206.00 L 330.00 206.00 L 330.00 218.00 L 296.00 218.00 L 296.00 159.39 C296.00,160.26 297.13,161.00 298.75,161.18 C304.41,161.84 308.36,161.56 309.29,160.50 L 309.09 182.25 L 308.92 200.76 C308.74,199.53 308.26,199.38 307.04,199.70 C305.96,199.98 305.13,200.50 305.19,200.86 C305.26,201.21 304.98,202.26 304.57,203.19 C303.35,205.97 304.35,208.37 307.01,209.04 ZM 32.67 296.33 C32.66,296.32 32.65,296.29 32.64,296.24 C33.23,296.43 35.40,296.29 37.76,295.90 C40.37,295.47 123.36,295.09 222.19,295.06 C346.32,295.02 402.08,294.68 402.53,293.95 C402.89,293.38 402.89,292.15 402.53,291.23 C402.10,290.10 401.66,289.93 401.19,290.69 C401.17,290.72 401.11,290.75 401.00,290.78 L 401.00 272.50 C401.00,280.83 401.38,286.00 402.00,286.00 C402.60,286.00 403.00,281.99 403.00,275.97 C403.00,267.97 403.30,265.82 404.50,265.36 C405.36,265.03 406.00,263.54 406.00,261.89 C406.00,259.47 405.59,259.00 403.50,259.00 L 406.00 259.00 L 406.00 297.00 L 219.67 297.00 C117.18,297.00 33.03,296.70 32.67,296.33 ZM 400.24 187.25 L 400.49 157.45 C400.72,157.78 401.48,158.00 402.58,158.00 C405.93,158.00 407.93,160.50 407.97,164.75 C407.99,167.32 408.42,168.00 410.00,168.00 C411.78,168.00 412.00,167.33 412.00,162.00 L 412.00 174.45 C412.00,184.65 412.35,193.00 412.78,193.00 C413.21,193.00 416.23,190.30 419.50,187.00 L 425.44 181.00 L 442.46 181.00 L 433.50 190.00 L 427.05 196.48 L 427.87 195.63 C431.26,192.14 430.86,190.27 426.99,191.50 C425.90,191.85 424.94,191.77 424.87,191.32 C424.24,187.28 424.49,185.81 425.94,185.03 C426.88,184.53 428.21,184.51 429.01,185.00 C429.78,185.48 430.83,185.60 431.36,185.28 C431.88,184.96 431.99,185.21 431.60,185.84 C431.21,186.47 431.31,187.72 431.81,188.63 C432.64,190.10 432.96,190.04 434.98,188.02 L 437.22 185.78 L 435.16 183.72 C434.01,182.57 431.41,181.50 429.29,181.30 C425.82,180.97 425.02,181.42 420.09,186.41 C414.81,191.76 414.74,191.90 417.16,192.50 C418.52,192.84 420.05,193.04 420.56,192.94 C422.62,192.55 423.67,193.07 423.67,194.50 C423.67,195.32 423.39,196.00 423.05,196.00 C422.71,196.00 422.52,197.24 422.64,198.75 C422.75,200.26 422.91,201.50 423.00,201.50 C423.09,201.50 423.37,202.74 423.62,204.26 C423.99,206.54 423.60,207.20 421.37,208.05 L 418.66 209.08 L 423.04 213.54 L 424.72 215.26 L 420.50 211.00 C417.13,207.61 414.04,204.76 413.05,204.13 C413.45,204.04 413.99,204.39 414.70,205.10 C415.50,205.90 415.98,205.63 416.46,204.11 C417.24,201.67 415.19,198.44 413.00,198.63 C412.17,198.71 410.95,198.82 410.29,198.88 C407.30,199.17 406.58,203.41 407.27,216.75 C407.30,217.44 408.38,218.00 409.67,218.00 C411.89,218.00 412.00,217.67 412.00,211.00 C412.00,208.27 412.08,206.44 412.32,205.35 C412.13,206.63 412.00,208.69 412.00,211.00 L 412.00 218.00 L 399.97 218.00 L 400.10 203.43 C400.26,203.77 400.60,204.00 401.00,204.00 C401.55,204.00 402.00,203.55 402.00,203.00 C402.00,202.45 401.55,202.00 401.00,202.00 C400.61,202.00 400.27,202.23 400.10,202.56 ZM 70.95 215.62 C70.08,217.91 70.23,218.00 74.52,218.00 L 44.98 218.00 L 46.24 217.82 C48.25,217.54 48.45,217.06 48.03,213.50 C47.41,208.27 47.51,177.51 48.16,173.00 C48.44,171.07 48.25,168.96 47.76,168.31 C47.26,167.66 47.00,165.86 47.18,164.31 C47.49,161.61 47.70,161.51 52.75,161.64 C57.32,161.76 58.00,161.52 58.00,159.84 C58.00,158.09 57.36,157.94 51.25,158.20 L 58.00 157.91 L 58.00 202.35 C58.00,198.85 57.92,198.76 56.14,200.37 C54.12,202.20 54.30,206.18 56.49,207.99 C57.18,208.57 60.80,209.15 64.53,209.29 C71.90,209.57 72.88,210.54 70.95,215.62 ZM 354.00 181.00 L 360.50 181.00 C362.15,181.00 363.42,181.03 364.37,181.12 C363.97,181.13 363.51,181.15 362.98,181.19 C360.77,181.36 359.09,181.95 359.23,182.50 C359.38,183.05 360.06,183.44 360.75,183.36 C361.44,183.28 362.00,183.67 362.00,184.22 C362.00,184.77 362.60,184.98 363.34,184.70 C365.85,183.74 367.49,185.75 367.92,190.31 C367.97,190.76 369.98,190.83 372.40,190.46 C372.46,190.45 372.53,190.44 372.59,190.44 C371.50,190.81 370.43,191.48 369.45,192.45 C367.13,194.78 367.00,195.53 367.00,206.45 L 367.00 218.00 L 354.00 218.00 L 354.00 181.00 ZM 334.09 199.50 L 334.31 181.00 L 347.00 181.00 L 347.00 212.17 C347.00,207.61 346.67,206.33 345.48,206.33 C343.89,206.33 342.85,209.16 343.26,212.36 C343.61,215.11 340.52,216.81 338.02,215.24 C335.19,213.48 334.00,213.70 334.00,216.00 C334.00,217.79 334.66,218.00 340.43,218.00 L 333.87 218.00 L 334.01 205.77 C334.08,209.20 334.42,209.77 335.58,209.33 C336.86,208.84 336.91,208.56 335.83,207.88 C334.84,207.24 334.81,207.03 335.75,207.02 C337.62,206.99 337.39,199.36 335.50,198.64 C334.61,198.30 334.22,198.71 334.07,200.84 ZM 259.66 204.51 C262.22,209.09 264.03,209.88 264.66,206.70 C264.85,205.76 265.19,204.21 265.42,203.25 C265.66,202.29 265.88,201.22 265.92,200.89 C265.97,200.55 267.12,200.49 268.50,200.76 C270.07,201.06 271.00,200.78 271.00,200.00 C271.00,199.42 270.63,198.38 270.07,197.17 L 271.53 199.91 L 273.54 195.93 C271.91,199.66 272.33,201.47 274.74,200.55 C277.25,199.58 279.76,200.90 280.42,203.54 C280.76,204.89 281.37,206.00 281.77,206.00 C282.06,205.99 284.99,200.80 288.06,195.08 C285.80,199.43 283.11,204.57 280.27,210.00 L 270.95 227.80 C272.13,225.40 272.81,223.50 272.58,223.14 C272.28,222.64 272.73,221.64 273.59,220.92 C275.45,219.38 281.62,207.50 280.06,208.46 C279.48,208.82 279.00,208.71 279.00,208.21 C279.00,207.70 277.31,207.34 275.25,207.40 C272.06,207.48 271.45,207.87 271.15,209.96 C270.96,211.31 271.33,214.16 271.97,216.30 C272.96,219.60 272.89,220.47 271.50,222.00 C269.15,224.60 266.66,223.82 265.43,220.11 C264.39,216.97 263.86,216.50 262.10,217.18 C261.74,217.31 259.59,221.11 257.37,225.31 C257.58,224.90 257.79,224.49 258.00,224.07 L 264.01 212.29 L 256.31 198.51 L 252.86 192.34 C253.88,193.90 254.83,194.89 255.28,194.74 C255.96,194.51 256.46,192.29 256.47,189.43 C256.50,185.18 256.77,184.50 258.50,184.50 C260.36,184.50 261.84,183.39 261.97,181.93 L 266.51 190.47 L 268.37 193.96 C266.86,191.41 265.15,189.11 264.58,189.30 C263.98,189.50 263.36,191.71 263.20,194.21 C262.93,198.35 262.63,198.82 260.00,199.35 L 257.10 199.93 ZM 381.01 214.25 C381.00,217.26 381.37,218.00 382.88,218.00 L 381.00 218.00 L 381.00 206.00 C381.00,195.33 380.78,193.78 379.00,192.00 C378.51,191.51 377.99,191.12 377.44,190.82 C379.82,191.81 381.00,194.19 381.00,197.97 C381.00,201.09 381.32,201.81 382.50,201.36 C383.33,201.05 384.06,200.38 384.12,199.89 C384.19,199.40 384.33,198.44 384.44,197.75 C384.54,197.06 384.30,195.58 383.91,194.46 C383.52,193.32 383.78,191.35 384.50,190.01 C385.20,188.68 385.58,187.07 385.33,186.43 C385.09,185.79 385.59,184.99 386.44,184.66 C387.86,184.12 388.26,183.43 387.68,182.72 C388.77,183.45 389.82,184.29 390.59,185.09 L 393.50 188.13 L 393.55 190.34 C393.18,188.93 392.58,188.08 392.21,188.45 C391.20,189.47 391.35,192.40 392.47,193.20 C392.99,193.57 393.37,193.70 393.62,193.59 L 393.77 200.51 C393.59,199.46 393.34,198.71 393.05,198.53 C391.71,197.71 390.20,201.02 390.54,204.00 C390.70,205.38 390.87,206.84 390.92,207.25 C390.96,207.66 391.67,208.00 392.50,208.00 C393.27,208.00 393.70,207.43 393.88,205.97 L 394.14 218.00 L 382.88 218.00 C385.52,218.00 385.90,215.24 383.97,210.10 C382.46,206.10 382.25,205.92 381.67,208.10 C381.32,209.42 381.02,212.19 381.01,214.25 ZM 197.55 205.55 C200.93,202.16 200.86,197.13 197.36,193.64 C191.87,188.15 183.00,191.77 183.00,199.50 C183.00,201.98 183.76,203.85 185.45,205.55 C187.15,207.24 189.02,208.00 191.50,208.00 C193.98,208.00 195.85,207.24 197.55,205.55 ZM 148.46 207.38 C150.96,206.42 153.26,201.17 152.51,198.14 C149.91,187.67 136.00,189.17 136.00,199.92 C136.00,206.34 141.92,209.89 148.46,207.38 ZM 92.50 217.59 C88.49,215.81 85.28,212.82 83.23,209.15 C83.67,209.87 84.17,210.55 84.72,211.18 C86.35,213.05 88.54,212.65 89.43,210.32 C89.75,209.48 90.68,209.05 91.48,209.35 C92.28,209.66 93.58,209.28 94.35,208.51 C95.13,207.73 96.15,207.41 96.62,207.80 C97.09,208.18 96.70,207.56 95.74,206.42 C95.40,206.02 95.09,205.55 94.82,205.06 C96.33,207.14 99.65,209.00 102.50,209.00 C104.28,209.00 106.90,208.08 108.32,206.96 L 109.72 205.86 C109.52,206.48 109.84,207.72 110.60,209.19 C112.14,212.17 112.11,212.35 109.60,214.67 C108.17,216.00 107.00,217.29 107.00,217.54 C107.00,217.90 107.48,218.05 108.21,218.01 C104.38,219.07 100.19,219.38 96.54,218.76 C97.00,218.64 96.99,218.17 96.81,217.25 C96.43,215.30 92.89,214.84 92.28,216.67 C92.17,216.98 92.27,217.31 92.51,217.60 C92.50,217.59 92.50,217.59 92.50,217.59 ZM 208.96 213.75 C208.99,217.32 209.32,218.00 211.00,218.00 C212.93,218.00 213.00,217.33 213.00,199.50 C213.00,181.85 212.91,181.00 211.06,181.00 C208.37,181.00 207.88,182.21 209.17,185.63 C210.09,188.07 209.91,189.25 208.11,192.78 C206.93,195.10 206.36,197.00 206.85,197.00 C207.33,197.00 207.41,198.75 207.02,200.89 C206.55,203.45 206.76,205.58 207.62,207.14 C208.34,208.44 208.95,211.41 208.96,213.75 ZM 239.84 218.00 C239.89,218.33 239.97,218.57 240.14,218.73 C238.41,218.88 236.63,218.91 235.01,218.79 C225.33,218.07 218.57,211.27 216.90,203.38 C217.53,206.02 218.67,208.59 220.17,210.50 C222.25,213.13 222.40,213.17 223.71,211.39 C224.46,210.35 226.41,209.47 228.09,209.40 C232.32,209.23 233.56,207.77 231.87,204.94 C234.22,207.81 238.37,209.42 241.97,208.16 C242.02,208.14 242.06,208.13 242.11,208.11 C239.67,208.97 239.38,209.56 239.52,213.04 C239.61,215.22 239.75,217.45 239.84,218.00 ZM 457.69 192.60 L 455.16 191.36 L 454.53 194.70 C454.18,196.53 454.14,198.43 454.44,198.90 C454.74,199.38 454.24,199.71 453.35,199.64 C450.46,199.39 450.85,201.21 453.53,202.70 C450.00,201.13 447.46,199.26 445.93,197.13 C447.17,198.32 448.73,198.32 449.24,196.77 C449.47,196.09 449.19,194.33 448.63,192.84 C447.19,189.03 449.05,185.18 452.17,185.50 C455.75,185.87 455.79,185.90 455.64,187.57 C455.53,188.78 456.66,189.21 460.50,189.42 C461.22,189.45 461.96,189.51 462.67,189.59 C459.64,189.38 456.58,189.81 456.25,190.76 C456.09,191.25 456.65,191.93 457.69,192.60 ZM 408.75 191.61 C409.53,192.38 410.57,192.76 411.08,192.45 C412.06,191.85 412.40,174.00 411.43,174.00 C411.11,174.00 410.13,174.73 409.23,175.62 C407.07,177.79 406.71,189.57 408.75,191.61 ZM 290.59 181.04 C288.99,181.17 287.97,181.62 287.93,182.25 C287.76,185.38 287.07,189.27 286.60,189.74 C286.31,190.02 284.68,190.42 282.98,190.61 C280.17,190.94 279.94,190.76 280.55,188.74 C281.61,185.24 281.58,184.78 280.26,184.30 C279.70,184.09 278.88,184.79 278.27,185.92 C278.37,185.68 278.47,185.46 278.55,185.25 L 280.30 181.00 L 287.76 181.00 C288.84,181.00 289.79,181.01 290.59,181.04 ZM 120.53 195.68 C120.31,195.46 120.00,195.45 119.58,195.61 C118.79,195.91 117.91,196.80 117.60,197.60 C117.21,198.62 115.60,198.99 112.01,198.86 C107.51,198.70 107.03,198.47 107.58,196.74 C108.59,193.58 111.62,191.02 112.88,192.28 C114.70,194.10 117.92,193.81 118.57,191.78 C118.93,190.64 118.58,189.29 117.72,187.91 C119.14,190.01 120.02,192.50 120.53,195.68 ZM 228.27 182.21 C226.99,183.50 227.55,185.39 229.09,184.44 C229.62,184.12 229.93,184.45 229.77,185.18 C229.62,185.90 230.08,186.38 230.79,186.24 C231.73,186.04 231.83,186.45 231.14,187.74 C230.62,188.71 230.17,189.95 230.13,190.50 C230.09,191.05 228.95,191.64 227.60,191.81 C225.85,192.03 224.77,191.44 223.90,189.81 C223.22,188.54 222.74,187.39 222.83,187.25 C222.92,187.11 222.68,186.89 222.29,186.75 C222.11,186.69 221.87,186.77 221.59,186.98 C223.66,184.69 225.53,183.18 228.27,182.21 ZM 85.46 187.08 C86.04,186.47 86.67,185.86 87.36,185.25 C88.89,183.91 90.61,182.82 92.44,182.00 C91.32,182.79 91.13,183.98 92.77,185.16 C93.79,185.90 94.93,187.31 95.30,188.29 C95.85,189.77 96.34,189.89 98.04,188.98 C99.00,188.47 100.11,188.27 101.25,188.32 C98.59,188.33 96.24,189.67 94.99,192.02 C94.66,192.63 94.47,193.05 94.59,193.34 C94.45,193.24 94.42,193.12 94.50,193.00 C95.10,192.03 93.79,191.59 91.24,191.93 C90.55,192.02 89.57,190.99 89.05,189.64 C87.95,186.74 86.88,185.94 85.46,187.08 ZM 285.13 230.12 C285.26,230.59 285.49,230.82 285.75,230.66 C286.16,230.41 286.62,232.29 286.78,234.85 C286.93,237.41 287.49,239.65 288.03,239.84 C288.57,240.02 288.73,240.63 288.38,241.19 C288.08,241.68 288.70,241.52 289.81,240.85 C288.92,241.75 288.82,242.86 289.53,243.97 C288.83,243.29 288.40,243.36 287.93,244.11 C286.73,246.05 288.41,248.02 290.90,248.91 C290.12,248.82 289.21,248.78 288.34,248.81 L 285.00 248.94 L 285.00 237.97 C285.00,234.22 285.02,231.75 285.13,230.12 ZM 473.18 206.95 C473.09,206.36 472.85,206.00 472.45,206.00 C471.72,206.00 470.89,206.38 470.60,206.84 C469.61,208.44 465.67,207.34 464.90,205.25 C464.04,202.92 465.09,201.68 468.92,200.50 L 471.03 199.85 C472.76,201.70 473.21,203.80 473.18,206.95 ZM 125.12 226.49 C125.89,226.04 126.82,225.55 127.83,225.08 L 132.66 222.82 L 136.08 224.91 C137.05,225.50 138.03,225.95 139.01,226.28 C138.10,225.99 137.22,225.60 136.42,225.11 C134.11,223.70 133.33,223.57 133.33,224.57 C133.33,225.31 133.65,225.72 134.04,225.47 C135.27,224.72 134.81,229.91 133.56,230.95 C132.18,232.09 127.62,229.43 128.50,228.00 C128.79,227.53 128.57,226.85 128.01,226.50 C127.38,226.11 126.18,226.18 125.12,226.49 ZM 341.89 165.88 C339.65,168.30 339.36,168.39 338.49,166.98 C338.14,166.42 337.47,166.21 336.98,166.51 C336.08,167.07 336.44,163.72 337.46,162.06 C338.24,160.81 341.39,161.12 342.76,162.58 C343.58,163.46 343.35,164.32 341.89,165.88 ZM 319.64 216.51 C319.17,217.72 320.09,218.00 324.53,218.00 C328.73,218.00 330.00,217.65 330.00,216.50 C330.00,214.85 329.91,214.81 325.25,214.55 C323.46,214.45 322.00,214.76 322.00,215.24 C322.00,215.73 321.60,215.87 321.10,215.56 C320.61,215.26 319.95,215.68 319.64,216.51 ZM 354.25 216.75 C353.94,217.67 355.61,218.00 360.50,218.00 C365.39,218.00 367.06,217.67 366.75,216.75 C366.48,215.94 364.28,215.50 360.50,215.50 C356.72,215.50 354.52,215.94 354.25,216.75 ZM 196.00 208.15 C196.00,209.48 199.63,209.15 200.82,207.72 C201.47,206.94 201.54,205.87 201.00,205.01 C200.26,203.81 199.80,203.87 198.06,205.44 C196.93,206.47 196.00,207.69 196.00,208.15 ZM 259.74 180.99 C257.94,181.06 255.51,181.66 254.16,182.60 C252.04,184.08 251.77,184.07 250.57,182.43 C249.48,180.94 247.80,180.67 239.85,180.73 C243.13,180.66 247.11,180.70 252.00,180.81 L 259.74 180.99 ZM 161.78 185.44 C163.20,186.86 165.00,185.78 165.00,183.50 C165.00,180.53 162.47,180.10 161.73,182.94 C161.45,184.01 161.47,185.14 161.78,185.44 ZM 428.60 213.23 C426.70,214.51 426.02,214.07 426.21,211.71 C426.33,210.34 427.05,209.43 428.03,209.43 C429.88,209.43 430.28,212.11 428.60,213.23 ZM 402.14 128.67 C402.99,129.69 403.60,129.75 404.63,128.89 C406.55,127.30 406.34,126.00 404.17,126.00 C401.62,126.00 400.81,127.07 402.14,128.67 ZM 134.55 195.08 C135.43,196.50 136.40,196.18 137.74,194.05 C138.42,192.96 138.56,191.85 138.06,191.54 C136.88,190.81 133.82,193.89 134.55,195.08 ZM 94.55 181.17 C97.60,180.16 100.86,179.82 104.02,180.17 C103.16,180.24 102.70,180.62 102.42,181.36 C101.95,182.57 101.35,182.72 99.97,181.98 C98.20,181.04 96.17,180.87 94.55,181.17 ZM 354.61 184.27 C355.58,185.25 357.67,184.01 357.67,182.46 C357.67,181.66 357.35,181.00 356.96,181.00 C355.83,181.00 353.95,183.62 354.61,184.27 ZM 197.68 193.60 C197.97,194.37 198.62,195.00 199.11,195.00 C200.25,195.00 200.28,192.29 199.14,191.59 C197.89,190.81 197.05,191.97 197.68,193.60 ZM 170.74 207.91 C169.44,205.07 168.89,202.02 169.11,198.89 C169.12,199.67 169.19,200.52 169.29,201.51 C169.50,203.57 170.08,206.04 170.74,207.91 ZM 110.22 205.47 L 110.92 204.92 L 115.21 207.08 C115.22,207.09 115.23,207.09 115.24,207.10 C113.14,206.20 111.01,205.46 110.22,205.47 ZM 445.03 187.70 C445.95,185.24 447.68,183.61 450.77,182.18 C448.10,183.59 446.13,185.53 445.03,187.70 ZM 460.30 218.75 C463.57,218.37 466.59,217.54 468.70,216.37 C468.03,216.83 467.28,217.24 466.45,217.58 C465.03,218.18 462.80,218.57 460.30,218.75 ZM 301.77 158.16 C297.16,158.00 296.00,158.27 296.00,159.39 L 296.00 157.91 L 301.77 158.16 ZM 292.73 249.33 C294.01,249.48 295.35,249.34 296.56,248.79 C296.68,248.74 296.79,248.68 296.90,248.62 C295.54,249.70 294.01,250.12 292.77,249.36 C292.76,249.35 292.74,249.34 292.73,249.33 ZM 303.75 158.25 L 309.31 158.50 L 309.30 159.39 C308.78,158.75 307.19,158.44 303.75,158.25 ZM 232.09 194.06 C234.03,191.42 237.61,190.20 242.03,190.74 C237.81,190.23 234.22,191.55 232.09,194.06 ZM 269.58 230.42 L 266.40 236.50 L 266.18 236.51 L 269.52 230.52 C269.54,230.49 269.56,230.46 269.58,230.42 ZM 459.82 180.20 C464.03,180.06 468.50,180.66 470.87,181.93 C468.78,180.81 464.03,180.17 459.82,180.20 ZM 37.00 291.95 L 58.23 292.11 L 37.00 292.00 L 37.00 291.95 ZM 248.61 184.73 L 248.71 184.50 L 251.02 189.04 L 248.61 184.73 ZM 123.17 206.57 C122.44,204.41 122.03,202.09 122.02,199.72 C122.02,199.11 122.04,198.51 122.09,197.91 C121.95,200.80 122.34,203.83 123.17,206.57 ZM 143.78 218.81 C140.94,219.08 137.75,218.98 135.29,218.48 C137.68,218.89 140.95,219.01 143.78,218.81 ZM 291.55 239.78 C292.51,239.27 293.00,239.31 293.71,239.90 C293.08,239.61 292.33,239.53 291.55,239.78 ZM 248.65 214.67 C248.87,215.27 249.00,215.71 249.00,215.92 C249.00,216.29 248.59,216.67 247.88,217.02 C248.78,216.51 249.00,215.87 248.65,214.67 ZM 121.00 201.00 L 121.00 199.02 L 121.27 201.00 L 121.00 201.00 ZM 400.50 157.01 L 400.50 156.50 L 401.83 156.43 C401.11,156.59 400.63,156.79 400.50,157.00 C400.50,157.00 400.50,157.00 400.50,157.01 ZM 464.45 195.69 C463.44,195.31 461.87,194.63 460.26,193.86 C461.83,194.51 463.23,195.11 464.45,195.69 ZM 119.70 210.50 C119.47,211.00 118.84,211.64 117.92,212.64 C117.29,213.32 116.56,213.96 115.74,214.55 C117.43,213.16 119.05,211.51 119.70,210.50 ZM 455.89 203.75 C458.19,204.76 459.39,205.63 459.64,206.56 C459.37,205.70 458.20,204.86 455.89,203.75 ZM 108.00 193.43 C108.00,192.28 107.16,190.96 105.95,189.97 C107.18,190.88 108.00,192.10 108.00,193.43 ZM 123.00 228.15 C123.00,228.13 123.00,228.12 123.00,228.11 C123.09,228.98 124.81,230.83 126.93,232.60 C124.76,230.80 123.00,228.94 123.00,228.15 ZM 294.96 244.07 C295.42,243.21 295.47,242.35 295.23,241.62 C295.60,242.36 295.50,243.07 294.96,244.07 ZM 410.09 156.00 L 412.00 155.90 L 412.00 156.00 L 410.09 156.00 ZM 384.29 180.93 C381.87,180.16 378.65,180.01 375.81,180.38 C378.66,180.01 381.88,180.14 384.22,180.91 C384.24,180.91 384.26,180.92 384.29,180.93 ZM 467.62 190.57 C467.35,190.53 467.05,190.45 466.70,190.33 C466.33,190.20 465.92,190.08 465.48,189.98 C466.25,190.13 466.85,190.28 467.19,190.43 C467.34,190.49 467.48,190.54 467.62,190.57 ZM 293.51 184.56 C294.01,183.55 294.42,182.68 294.73,181.99 C294.74,182.07 294.72,182.16 294.68,182.25 C294.61,182.41 294.20,183.22 293.51,184.56 ZM 261.61 181.24 C261.38,181.12 261.06,181.05 260.68,181.01 L 261.50 181.03 L 261.61 181.24 ZM 470.87 187.25 C469.85,189.25 469.21,190.19 468.46,190.48 C469.17,190.17 469.88,189.18 470.87,187.25 ZM 277.63 187.39 C277.19,188.44 276.51,189.89 275.79,191.38 C276.44,190.02 277.08,188.62 277.63,187.39 ZM 44.24 188.32 L 43.97 218.00 L 43.97 218.00 L 44.50 158.50 ZM 243.94 207.62 C245.15,207.52 245.65,208.36 247.01,211.01 C245.66,208.37 245.12,207.54 243.94,207.62 ZM 219.13 190.23 C218.78,190.84 218.44,191.48 218.13,192.14 C218.42,191.49 218.76,190.86 219.13,190.23 ZM 94.00 202.77 C94.00,202.73 94.00,202.70 94.00,202.67 C94.00,202.33 94.08,202.06 94.36,201.84 C94.09,202.08 94.02,202.38 94.00,202.77 ZM 244.59 190.80 C245.67,190.58 246.20,189.80 247.08,187.95 C246.21,189.79 245.68,190.58 244.59,190.80 ZM 287.00 227.00 C286.68,227.00 286.40,227.04 286.16,227.11 C286.39,227.02 286.67,227.00 287.00,227.00 ZM 153.12 236.66 C152.80,236.78 152.50,236.88 152.22,236.96 C152.20,236.96 152.19,236.96 152.17,236.97 C152.48,236.88 152.80,236.78 153.12,236.66 ZM 252.58 236.69 C252.38,236.66 252.23,236.62 252.13,236.58 C252.23,236.62 252.38,236.65 252.58,236.69 ZM 252.00 236.47 C252.00,236.46 252.00,236.46 252.00,236.45 C252.00,236.46 252.00,236.47 252.00,236.47 Z" fill="rgba(0,0,0,1)"/>
<path d="M 384.00 241.62 C384.00,232.39 384.30,229.99 385.61,228.91 C386.96,227.79 387.40,227.83 388.40,229.19 C389.30,230.43 390.67,230.68 394.27,230.27 C397.53,229.91 399.67,230.21 401.27,231.26 C403.26,232.56 403.86,232.58 405.48,231.39 C408.41,229.25 414.36,229.63 416.60,232.10 C418.12,233.78 418.57,236.09 418.85,243.60 L 419.19 253.00 L 416.73 253.00 C414.37,253.00 414.24,252.67 413.78,245.54 C413.27,237.51 411.88,234.73 408.61,235.20 C405.62,235.63 404.03,239.62 404.01,246.75 C404.00,252.75 403.90,253.00 401.50,253.00 C399.07,253.00 399.00,252.80 399.00,245.93 C399.00,237.78 397.88,235.00 394.59,235.00 C390.97,235.00 389.74,237.42 389.22,245.54 C388.76,252.59 388.61,253.00 386.37,253.00 C384.02,253.00 384.00,252.92 384.00,241.62 ZM 327.60 251.41 C326.55,248.67 327.92,248.00 334.50,248.00 C339.81,248.00 341.36,247.59 343.69,245.59 C346.10,243.52 346.50,242.43 346.50,238.00 C346.50,233.57 346.10,232.48 343.69,230.41 C341.75,228.74 339.67,228.00 336.94,228.00 L 333.00 228.00 L 333.00 237.00 C333.00,245.83 332.95,246.00 330.61,246.00 C329.29,246.00 328.02,245.44 327.78,244.75 C327.53,244.06 327.54,238.89 327.78,233.25 L 328.23 223.00 L 335.87 223.00 C345.50,223.01 349.03,224.90 351.50,231.37 C354.10,238.17 352.90,244.34 348.02,249.21 C344.27,252.97 344.16,253.00 336.22,253.00 C329.82,253.00 328.09,252.68 327.60,251.41 ZM 359.77 250.08 C356.83,247.46 356.50,246.61 356.50,241.66 C356.50,237.22 356.96,235.67 358.93,233.58 C364.00,228.18 373.03,228.42 377.05,234.07 C378.23,235.72 378.97,237.62 378.71,238.29 C378.44,238.95 375.42,240.57 372.00,241.88 C366.86,243.84 365.62,244.01 364.90,242.88 C363.52,240.70 363.75,240.40 368.25,238.61 C372.29,236.99 372.40,236.84 370.55,235.45 C366.51,232.42 360.39,237.12 361.42,242.46 C362.71,249.13 369.24,250.65 373.65,245.31 C375.02,243.66 376.39,242.94 377.40,243.32 C379.83,244.26 379.32,246.83 376.08,250.08 C373.62,252.54 372.35,253.00 368.09,253.00 C363.91,253.00 362.46,252.49 359.77,250.08 Z" fill="rgba(20,41,49,1)"/>
<path d="M 440.62 249.97 C436.15,246.05 434.64,242.11 435.23,235.94 C436.05,227.44 443.46,221.41 452.07,222.23 C462.86,223.27 469.45,235.42 464.47,245.06 C462.99,247.93 463.02,248.06 465.47,248.99 C466.86,249.52 468.00,250.58 468.00,251.36 C468.00,252.49 465.62,252.79 456.00,252.85 C444.07,252.94 443.98,252.92 440.62,249.97 ZM 452.55 246.07 C452.23,245.56 450.40,244.63 448.48,243.99 C446.56,243.36 444.52,241.98 443.96,240.92 C443.04,239.21 443.29,239.00 446.25,239.00 C448.08,239.00 451.34,239.90 453.50,241.00 C458.48,243.54 458.65,243.52 459.44,240.40 C460.42,236.46 458.26,231.19 454.97,229.48 C451.38,227.63 449.64,227.62 446.09,229.45 C438.09,233.59 440.88,247.00 449.73,247.00 C451.59,247.00 452.86,246.58 452.55,246.07 ZM 425.22 241.75 C425.48,231.26 425.64,230.50 427.50,230.50 C429.36,230.50 429.52,231.26 429.78,241.75 L 430.07 253.00 L 424.93 253.00 ZM 426.07 227.04 C424.41,226.02 425.38,223.00 427.36,223.00 C428.15,223.00 429.03,223.64 429.33,224.43 C430.06,226.32 427.81,228.12 426.07,227.04 Z" fill="rgba(73,184,128,1)"/>
<path d="M 32.51 296.17 C31.38,295.05 32.10,288.16 33.46,287.04 C35.40,285.42 37.00,286.56 37.00,289.56 L 37.00 292.00 L 72.25 292.19 C91.64,292.29 173.42,292.25 253.99,292.10 C362.00,291.90 400.67,291.53 401.19,290.69 C401.66,289.93 402.10,290.10 402.53,291.23 C402.89,292.15 402.89,293.38 402.53,293.95 C402.08,294.68 346.32,295.02 222.19,295.06 C123.36,295.09 40.37,295.47 37.76,295.90 C35.15,296.33 32.79,296.45 32.51,296.17 ZM 401.00 272.50 L 401.00 259.00 L 403.50 259.00 C405.59,259.00 406.00,259.47 406.00,261.89 C406.00,263.54 405.36,265.03 404.50,265.36 C403.30,265.82 403.00,267.97 403.00,275.97 C403.00,281.99 402.60,286.00 402.00,286.00 C401.38,286.00 401.00,280.83 401.00,272.50 ZM 301.98 252.04 C304.48,247.14 304.48,246.81 301.95,242.77 C300.82,240.97 300.01,240.18 300.15,241.00 C300.68,244.02 298.99,247.69 296.56,248.79 C292.16,250.79 285.90,247.40 287.93,244.11 C288.49,243.21 289.00,243.29 289.96,244.45 C291.70,246.55 293.72,246.40 294.96,244.07 C295.75,242.61 295.61,241.75 294.39,240.53 C292.90,239.05 292.57,239.05 290.26,240.56 C288.88,241.47 288.04,241.75 288.38,241.19 C288.73,240.63 288.57,240.02 288.03,239.84 C287.49,239.65 286.93,237.41 286.78,234.85 C286.62,232.29 286.16,230.41 285.75,230.66 C285.34,230.91 285.00,230.19 285.00,229.06 C285.00,227.67 285.65,227.00 287.00,227.00 C288.73,227.00 289.00,227.67 289.00,231.98 C289.00,236.72 289.11,236.91 291.25,236.11 C292.49,235.65 294.40,235.60 295.50,236.01 C296.60,236.42 298.85,236.54 300.50,236.29 C303.05,235.90 303.79,236.32 305.42,239.11 L 307.34 242.38 L 308.85 239.19 C310.01,236.75 311.01,236.00 313.09,236.00 L 315.81 236.00 L 310.65 245.98 C306.02,254.97 305.22,255.97 302.73,255.98 L 299.96 256.00 L 301.98 252.04 ZM 133.15 236.64 C129.75,235.40 123.00,229.69 123.00,228.04 C123.00,226.84 126.71,225.70 128.01,226.50 C128.57,226.85 128.79,227.53 128.50,228.00 C127.62,229.43 132.18,232.09 133.56,230.95 C134.81,229.91 135.27,224.72 134.04,225.47 C133.65,225.72 133.33,225.31 133.33,224.57 C133.33,223.57 134.11,223.70 136.42,225.11 C140.23,227.44 145.78,227.54 148.92,225.34 C151.14,223.79 151.38,223.79 152.58,225.44 C153.28,226.40 153.63,227.79 153.35,228.52 C152.94,229.59 156.82,232.80 157.75,232.17 C157.89,232.08 158.56,232.01 159.25,232.03 C161.45,232.09 155.97,235.91 152.17,236.97 C147.30,238.32 137.33,238.15 133.15,236.64 ZM 252.00 236.48 C252.00,235.28 261.31,217.47 262.10,217.18 C263.86,216.50 264.39,216.97 265.43,220.11 C266.66,223.82 269.15,224.60 271.50,222.00 C272.89,220.47 272.96,219.60 271.97,216.30 C271.33,214.16 270.96,211.31 271.15,209.96 C271.45,207.87 272.06,207.48 275.25,207.40 C277.31,207.34 279.00,207.70 279.00,208.21 C279.00,208.71 279.48,208.82 280.06,208.46 C281.62,207.50 275.45,219.38 273.59,220.92 C272.73,221.64 272.28,222.64 272.58,223.14 C272.89,223.64 271.52,226.96 269.52,230.52 L 265.90 237.00 L 258.95 237.00 C255.13,237.00 252.00,236.77 252.00,236.48 ZM 159.58 227.17 C159.86,223.67 162.43,220.53 164.15,221.59 C166.26,222.90 163.53,230.16 160.77,230.56 C159.66,230.73 159.37,229.89 159.58,227.17 ZM 93.69 218.30 C92.70,218.04 92.06,217.31 92.28,216.67 C92.89,214.84 96.43,215.30 96.81,217.25 C97.15,219.03 96.88,219.12 93.69,218.30 ZM 133.10 217.92 C129.31,216.40 131.47,215.60 139.79,215.47 C144.03,215.40 148.12,215.15 148.88,214.92 C151.49,214.12 151.15,216.99 148.52,217.99 C145.23,219.24 136.31,219.20 133.10,217.92 ZM 191.63 218.20 C191.35,217.76 191.44,216.98 191.82,216.45 C192.69,215.24 196.00,214.94 196.00,216.08 C196.00,217.31 192.21,219.15 191.63,218.20 ZM 239.84 218.00 C239.75,217.45 239.61,215.22 239.52,213.04 C239.38,209.52 239.68,208.96 242.18,208.09 C244.83,207.16 245.14,207.35 247.01,211.01 C249.70,216.29 249.58,216.74 245.25,217.95 C240.59,219.24 240.04,219.25 239.84,218.00 ZM 447.29 217.67 C442.30,215.85 441.58,214.69 443.38,211.36 C446.37,205.83 446.30,205.86 450.52,208.01 C455.16,210.38 457.33,210.51 458.96,208.54 C460.61,206.56 459.55,205.20 454.87,203.33 C451.04,201.80 450.03,199.36 453.35,199.64 C454.24,199.71 454.74,199.38 454.44,198.90 C454.14,198.43 454.18,196.53 454.53,194.70 L 455.16 191.36 L 459.83 193.65 C462.40,194.91 464.95,195.96 465.50,195.99 C466.05,196.02 467.59,196.88 468.92,197.90 L 471.33 199.76 L 468.92 200.50 C465.09,201.68 464.04,202.92 464.90,205.25 C465.67,207.34 469.61,208.44 470.60,206.84 C470.89,206.38 471.72,206.00 472.45,206.00 C474.09,206.00 472.95,212.15 470.85,214.68 C467.47,218.76 454.68,220.38 447.29,217.67 ZM 44.24 188.32 L 44.50 158.50 L 51.25 158.20 C57.36,157.94 58.00,158.09 58.00,159.84 C58.00,161.52 57.32,161.76 52.75,161.64 C47.70,161.51 47.49,161.61 47.18,164.31 C47.00,165.86 47.26,167.66 47.76,168.31 C48.25,168.96 48.44,171.07 48.16,173.00 C47.51,177.51 47.41,208.27 48.03,213.50 C48.45,217.06 48.25,217.54 46.24,217.82 L 43.97 218.14 L 44.24 188.32 ZM 70.95 215.62 C72.88,210.54 71.90,209.57 64.53,209.29 C60.80,209.15 57.18,208.57 56.49,207.99 C54.30,206.18 54.12,202.20 56.14,200.37 C57.92,198.76 58.00,198.85 58.00,202.35 L 58.00 206.00 L 68.50 206.00 L 79.00 206.00 L 79.00 212.00 L 79.00 218.00 L 74.52 218.00 C70.23,218.00 70.08,217.91 70.95,215.62 ZM 107.00 217.54 C107.00,217.29 108.17,216.00 109.60,214.67 C112.11,212.35 112.14,212.17 110.60,209.19 C109.64,207.35 109.39,205.88 109.97,205.52 C110.75,205.04 118.29,208.15 119.92,209.63 C120.62,210.26 115.68,215.10 112.80,216.60 C110.18,217.96 107.00,218.48 107.00,217.54 ZM 208.96 213.75 C208.95,211.41 208.34,208.44 207.62,207.14 C206.76,205.58 206.55,203.45 207.02,200.89 C207.41,198.75 207.33,197.00 206.85,197.00 C206.36,197.00 206.93,195.10 208.11,192.78 C209.91,189.25 210.09,188.07 209.17,185.63 C207.88,182.21 208.37,181.00 211.06,181.00 C212.91,181.00 213.00,181.85 213.00,199.50 C213.00,217.33 212.93,218.00 211.00,218.00 C209.32,218.00 208.99,217.32 208.96,213.75 ZM 319.64 216.51 C319.95,215.68 320.61,215.26 321.10,215.56 C321.60,215.87 322.00,215.73 322.00,215.24 C322.00,214.76 323.46,214.45 325.25,214.55 C329.91,214.81 330.00,214.85 330.00,216.50 C330.00,217.65 328.73,218.00 324.53,218.00 C320.09,218.00 319.17,217.72 319.64,216.51 ZM 334.00 216.00 C334.00,213.70 335.19,213.48 338.02,215.24 C340.52,216.81 343.61,215.11 343.26,212.36 C342.85,209.16 343.89,206.33 345.48,206.33 C346.67,206.33 347.00,207.61 347.00,212.17 L 347.00 218.00 L 340.50 218.00 C334.67,218.00 334.00,217.79 334.00,216.00 ZM 354.25 216.75 C354.52,215.94 356.72,215.50 360.50,215.50 C364.28,215.50 366.48,215.94 366.75,216.75 C367.06,217.67 365.39,218.00 360.50,218.00 C355.61,218.00 353.94,217.67 354.25,216.75 ZM 381.01 214.25 C381.02,212.19 381.32,209.42 381.67,208.10 C382.25,205.92 382.46,206.10 383.97,210.10 C385.90,215.24 385.52,218.00 382.88,218.00 C381.37,218.00 381.00,217.26 381.01,214.25 ZM 407.27 216.75 C406.58,203.41 407.30,199.17 410.29,198.88 C410.95,198.82 412.17,198.71 413.00,198.63 C415.19,198.44 417.24,201.67 416.46,204.11 C415.98,205.63 415.50,205.90 414.70,205.10 C412.53,202.93 412.00,204.10 412.00,211.00 C412.00,217.67 411.89,218.00 409.67,218.00 C408.38,218.00 407.30,217.44 407.27,216.75 ZM 423.04 213.54 L 418.66 209.08 L 421.37 208.05 C423.60,207.20 423.99,206.54 423.62,204.26 C423.37,202.74 423.09,201.50 423.00,201.50 C422.91,201.50 422.75,200.26 422.64,198.75 C422.52,197.24 422.71,196.00 423.05,196.00 C423.39,196.00 423.67,195.32 423.67,194.50 C423.67,193.07 422.62,192.55 420.56,192.94 C420.05,193.04 418.52,192.84 417.16,192.50 C414.74,191.90 414.81,191.76 420.09,186.41 C425.02,181.42 425.82,180.97 429.29,181.30 C431.41,181.50 434.01,182.57 435.16,183.72 L 437.22 185.78 L 434.98 188.02 C432.96,190.04 432.64,190.10 431.81,188.63 C431.31,187.72 431.21,186.47 431.60,185.84 C431.99,185.21 431.88,184.96 431.36,185.28 C430.83,185.60 429.78,185.48 429.01,185.00 C428.21,184.51 426.88,184.53 425.94,185.03 C424.49,185.81 424.24,187.28 424.87,191.32 C424.94,191.77 425.90,191.85 426.99,191.50 C430.86,190.27 431.26,192.14 427.87,195.63 L 424.57 199.03 L 434.02 208.52 L 443.46 218.00 L 435.44 218.00 L 427.42 218.00 L 423.04 213.54 ZM 428.60 213.23 C430.28,212.11 429.88,209.43 428.03,209.43 C427.05,209.43 426.33,210.34 426.21,211.71 C426.02,214.07 426.70,214.51 428.60,213.23 ZM 126.67 213.19 C122.24,208.30 120.69,198.06 123.40,191.59 C124.78,188.28 126.68,186.35 127.62,187.29 C127.89,187.55 128.25,191.16 128.44,195.29 C128.62,199.43 129.07,203.31 129.44,203.91 C129.81,204.51 129.68,205.00 129.13,205.00 C128.19,205.00 128.52,211.41 129.54,213.07 C130.59,214.76 128.18,214.86 126.67,213.19 ZM 84.72 211.18 C79.20,204.84 79.22,194.14 84.76,187.77 C86.54,185.74 87.77,186.28 89.05,189.64 C89.57,190.99 90.55,192.02 91.24,191.93 C93.79,191.59 95.10,192.03 94.50,193.00 C94.11,193.63 96.49,194.00 100.94,194.00 C104.82,194.00 108.00,193.75 108.00,193.43 C108.00,189.76 101.78,186.98 98.04,188.98 C96.34,189.89 95.85,189.77 95.30,188.29 C94.93,187.31 93.79,185.90 92.77,185.16 C88.87,182.36 95.33,179.50 99.97,181.98 C101.35,182.72 101.95,182.57 102.42,181.36 C102.88,180.16 103.81,179.91 106.15,180.38 C113.00,181.75 119.78,187.98 118.57,191.78 C117.92,193.81 114.70,194.10 112.88,192.28 C111.62,191.02 108.59,193.58 107.58,196.74 C107.03,198.47 107.51,198.70 112.01,198.86 C115.60,198.99 117.21,198.62 117.60,197.60 C117.91,196.80 118.79,195.91 119.58,195.61 C120.61,195.21 121.00,195.88 121.00,198.03 L 121.00 201.00 L 107.50 201.00 C95.55,201.00 94.00,201.19 94.00,202.67 C94.00,203.59 94.78,205.28 95.74,206.42 C96.70,207.56 97.09,208.18 96.62,207.80 C96.15,207.41 95.13,207.73 94.35,208.51 C93.58,209.28 92.28,209.66 91.48,209.35 C90.68,209.05 89.75,209.48 89.43,210.32 C88.54,212.65 86.35,213.05 84.72,211.18 ZM 171.65 209.98 C170.66,208.30 169.60,204.49 169.29,201.51 C168.82,196.94 169.16,195.20 171.41,190.59 C174.06,185.18 178.83,181.00 182.37,181.00 C184.42,181.00 184.54,183.61 182.50,183.83 C181.68,183.93 180.32,184.07 179.50,184.17 C178.68,184.26 178.00,185.13 178.00,186.11 C178.00,187.08 177.56,188.15 177.03,188.48 C176.50,188.81 176.22,192.10 176.42,195.79 C176.61,199.48 176.36,203.29 175.85,204.25 C175.30,205.29 175.30,206.00 175.84,206.00 C177.04,206.00 175.74,212.25 174.45,212.68 C173.89,212.87 172.63,211.65 171.65,209.98 ZM 220.17 210.50 C217.31,206.85 215.76,200.81 216.57,196.46 C217.26,192.79 221.07,186.32 222.29,186.75 C222.68,186.89 222.92,187.11 222.83,187.25 C222.74,187.39 223.22,188.54 223.90,189.81 C224.77,191.44 225.85,192.03 227.60,191.81 C228.95,191.64 230.09,191.05 230.13,190.50 C230.17,189.95 230.62,188.71 231.14,187.74 C231.83,186.45 231.73,186.04 230.79,186.24 C230.08,186.38 229.62,185.90 229.77,185.18 C229.93,184.45 229.62,184.12 229.09,184.44 C227.47,185.44 226.93,183.30 228.48,182.02 C229.38,181.27 233.62,180.78 239.60,180.73 C247.77,180.66 249.47,180.92 250.57,182.43 C251.77,184.07 252.04,184.08 254.16,182.60 C256.48,180.98 262.01,180.37 261.98,181.75 C261.95,183.30 260.43,184.50 258.50,184.50 C256.77,184.50 256.50,185.18 256.47,189.43 C256.46,192.29 255.96,194.51 255.28,194.74 C254.63,194.96 252.89,192.74 251.41,189.82 L 248.71 184.50 L 247.14 187.83 C245.71,190.85 245.22,191.13 242.03,190.74 C237.08,190.14 233.19,191.73 231.47,195.06 C229.56,198.75 229.61,201.48 231.65,204.59 C233.66,207.65 232.50,209.23 228.09,209.40 C226.41,209.47 224.46,210.35 223.71,211.39 C222.40,213.17 222.25,213.13 220.17,210.50 ZM 161.23 208.75 C160.68,208.06 159.99,205.70 159.71,203.50 C159.42,201.30 158.99,198.33 158.75,196.90 C158.25,193.95 159.48,191.87 162.75,190.13 L 165.00 188.93 L 165.00 199.46 C165.00,207.75 164.71,210.00 163.62,210.00 C162.86,210.00 161.79,209.44 161.23,208.75 ZM 307.01 209.04 C304.35,208.37 303.35,205.97 304.57,203.19 C304.98,202.26 305.26,201.21 305.19,200.86 C305.13,200.50 305.96,199.98 307.04,199.70 C308.70,199.26 309.00,199.70 309.00,202.59 L 309.00 206.00 L 319.57 206.00 C328.89,206.00 330.11,206.20 329.82,207.66 C329.55,209.07 328.28,209.29 321.51,209.09 C316.72,208.95 313.23,208.39 312.78,207.68 C312.24,206.83 312.03,206.82 312.02,207.64 C311.99,209.22 309.97,209.78 307.01,209.04 ZM 334.00 204.00 C334.00,199.13 334.27,198.17 335.50,198.64 C337.39,199.36 337.62,206.99 335.75,207.02 C334.81,207.03 334.84,207.24 335.83,207.88 C336.91,208.56 336.86,208.84 335.58,209.33 C334.25,209.84 334.00,209.01 334.00,204.00 ZM 196.00 208.15 C196.00,207.69 196.93,206.47 198.06,205.44 C199.80,203.87 200.26,203.81 201.00,205.01 C201.54,205.87 201.47,206.94 200.82,207.72 C199.63,209.15 196.00,209.48 196.00,208.15 ZM 259.66 204.51 L 257.10 199.93 L 260.00 199.35 C262.63,198.82 262.93,198.35 263.20,194.21 C263.36,191.71 263.98,189.50 264.58,189.30 C265.68,188.94 271.00,197.80 271.00,200.00 C271.00,200.78 270.07,201.06 268.50,200.76 C267.12,200.49 265.97,200.55 265.92,200.89 C265.88,201.22 265.66,202.29 265.42,203.25 C265.19,204.21 264.85,205.76 264.66,206.70 C264.03,209.88 262.22,209.09 259.66,204.51 ZM 390.92 207.25 C390.87,206.84 390.70,205.38 390.54,204.00 C390.20,201.02 391.71,197.71 393.05,198.53 C393.57,198.85 394.00,201.12 394.00,203.56 C394.00,206.84 393.61,208.00 392.50,208.00 C391.67,208.00 390.96,207.66 390.92,207.25 ZM 280.42 203.54 C279.76,200.90 277.25,199.58 274.74,200.55 C271.99,201.60 271.83,199.10 274.35,194.25 C275.71,191.64 277.32,188.23 277.93,186.67 C278.53,185.12 279.58,184.05 280.26,184.30 C281.58,184.78 281.61,185.24 280.55,188.74 C279.94,190.76 280.17,190.94 282.98,190.61 C284.68,190.42 286.31,190.02 286.60,189.74 C287.07,189.27 287.76,185.38 287.93,182.25 C287.97,181.50 289.42,181.00 291.58,181.00 C293.55,181.00 295.02,181.34 294.83,181.76 C292.46,187.17 282.32,205.99 281.77,206.00 C281.37,206.00 280.76,204.89 280.42,203.54 ZM 400.00 203.00 C400.00,202.45 400.45,202.00 401.00,202.00 C401.55,202.00 402.00,202.45 402.00,203.00 C402.00,203.55 401.55,204.00 401.00,204.00 C400.45,204.00 400.00,203.55 400.00,203.00 ZM 381.00 197.97 C381.00,192.10 378.14,189.60 372.40,190.46 C369.98,190.83 367.97,190.76 367.92,190.31 C367.49,185.75 365.85,183.74 363.34,184.70 C362.60,184.98 362.00,184.77 362.00,184.22 C362.00,183.67 361.44,183.28 360.75,183.36 C360.06,183.44 359.38,183.05 359.23,182.50 C359.09,181.95 360.77,181.36 362.98,181.19 C366.08,180.96 367.00,181.24 367.00,182.44 C367.00,184.43 367.89,184.41 370.13,182.38 C372.52,180.22 379.90,179.48 384.38,180.96 C388.21,182.23 389.02,183.67 386.44,184.66 C385.59,184.99 385.09,185.79 385.33,186.43 C385.58,187.07 385.20,188.68 384.50,190.01 C383.78,191.35 383.52,193.32 383.91,194.46 C384.30,195.58 384.54,197.06 384.44,197.75 C384.33,198.44 384.19,199.40 384.12,199.89 C384.06,200.38 383.33,201.05 382.50,201.36 C381.32,201.81 381.00,201.09 381.00,197.97 ZM 444.85 195.58 C442.21,189.77 446.01,183.47 453.71,180.93 C457.74,179.60 467.59,180.17 470.87,181.93 L 473.00 183.07 L 470.94 187.12 C469.35,190.24 468.49,191.00 467.19,190.43 C466.26,190.02 463.25,189.56 460.50,189.42 C456.66,189.21 455.53,188.78 455.64,187.57 C455.79,185.90 455.75,185.87 452.17,185.50 C449.05,185.18 447.19,189.03 448.63,192.84 C449.19,194.33 449.47,196.09 449.24,196.77 C448.56,198.83 446.02,198.14 444.85,195.58 ZM 134.55 195.08 C133.82,193.89 136.88,190.81 138.06,191.54 C138.56,191.85 138.42,192.96 137.74,194.05 C136.40,196.18 135.43,196.50 134.55,195.08 ZM 197.68 193.60 C197.05,191.97 197.89,190.81 199.14,191.59 C200.28,192.29 200.25,195.00 199.11,195.00 C198.62,195.00 197.97,194.37 197.68,193.60 ZM 392.47 193.20 C391.35,192.40 391.20,189.47 392.21,188.45 C392.59,188.07 393.20,188.96 393.57,190.43 C394.31,193.36 393.95,194.26 392.47,193.20 ZM 408.75 191.61 C406.71,189.57 407.07,177.79 409.23,175.62 C410.13,174.73 411.11,174.00 411.43,174.00 C412.40,174.00 412.06,191.85 411.08,192.45 C410.57,192.76 409.53,192.38 408.75,191.61 ZM 161.78 185.44 C161.47,185.14 161.45,184.01 161.73,182.94 C162.47,180.10 165.00,180.53 165.00,183.50 C165.00,185.78 163.20,186.86 161.78,185.44 ZM 197.50 185.33 C193.20,184.38 190.33,182.83 190.33,181.45 C190.33,179.53 191.33,179.62 195.92,181.96 C198.03,183.03 200.06,183.61 200.43,183.24 C200.80,182.87 200.81,183.33 200.45,184.28 C200.08,185.23 199.72,185.95 199.64,185.88 C199.56,185.82 198.60,185.57 197.50,185.33 ZM 142.35 183.20 C140.56,181.42 140.64,180.00 142.53,180.00 C145.29,180.00 151.16,182.93 150.51,183.99 C149.63,185.40 144.00,184.86 142.35,183.20 ZM 354.61 184.27 C353.95,183.62 355.83,181.00 356.96,181.00 C357.35,181.00 357.67,181.66 357.67,182.46 C357.67,184.01 355.58,185.25 354.61,184.27 ZM 130.00 183.45 C130.00,182.62 137.14,179.80 137.73,180.40 C139.22,181.89 136.76,184.00 133.53,184.00 C131.59,184.00 130.00,183.75 130.00,183.45 ZM 337.75 171.92 C334.91,170.27 333.11,165.85 334.15,163.09 C336.58,156.62 344.45,156.11 347.62,162.22 C350.98,168.74 344.03,175.58 337.75,171.92 ZM 341.89 165.88 C343.35,164.32 343.58,163.46 342.76,162.58 C341.39,161.12 338.24,160.81 337.46,162.06 C336.44,163.72 336.08,167.07 336.98,166.51 C337.47,166.21 338.14,166.42 338.49,166.98 C339.36,168.39 339.65,168.30 341.89,165.88 ZM 407.97 164.75 C407.93,160.50 405.93,158.00 402.58,158.00 C401.04,158.00 400.15,157.57 400.50,157.00 C400.84,156.45 403.57,156.00 406.56,156.00 L 412.00 156.00 L 412.00 162.00 C412.00,167.33 411.78,168.00 410.00,168.00 C408.42,168.00 407.99,167.32 407.97,164.75 ZM 298.75 161.18 C297.13,161.00 296.00,160.26 296.00,159.39 C296.00,158.20 297.33,157.97 302.75,158.20 C307.90,158.43 309.50,158.85 309.50,159.98 C309.50,161.46 305.26,161.93 298.75,161.18 ZM 33.17 133.52 C33.00,130.91 33.45,129.83 35.08,128.96 C36.70,128.09 37.49,128.11 38.36,129.03 C39.22,129.95 39.19,130.36 38.25,130.71 C37.56,130.96 37.00,131.73 37.00,132.43 C37.00,133.12 36.19,134.42 35.20,135.32 C33.51,136.85 33.39,136.75 33.17,133.52 ZM 402.14 128.67 C400.81,127.07 401.62,126.00 404.17,126.00 C406.34,126.00 406.55,127.30 404.63,128.89 C403.60,129.75 402.99,129.69 402.14,128.67 Z" fill="rgba(1,1,1,1)"/>
</g>
</svg>