<svg xmlns="http://www.w3.org/2000/svg" xmlns:xlink="http://www.w3.org/1999/xlink" width="108.856" height="67.958" viewBox="0 0 108.856 67.958">
  <defs>
    <clipPath id="clip-path">
      <rect id="Rectangle_3" data-name="Rectangle 3" width="108.856" height="67.958" fill="none"/>
    </clipPath>
  </defs>
  <g id="melt_logo" data-name="melt logo" transform="translate(246.978 -58)">
    <g id="Group_52" data-name="Group 52" transform="translate(-246.978 58)">
      <g id="Group_1" data-name="Group 1" clip-path="url(#clip-path)">
        <path id="Path_1" data-name="Path 1" d="M11.208,65.757V85.764A5.6,5.6,0,1,1,0,85.764V65.757Z" transform="translate(0 -45.715)" fill="#00a9e6"/>
        <path id="Path_2" data-name="Path 2" d="M44.245,0a20.8,20.8,0,0,0-10.1,2.595,5.581,5.581,0,0,1,.8,2.888V20.042c.009-9.981,15.016-12.341,18.111-2.6a8.548,8.548,0,0,1,.4,2.6L59.08,6.254A20.555,20.555,0,0,0,44.245,0Z" transform="translate(-23.739)" fill="orange"/>
        <path id="Path_3" data-name="Path 3" d="M10.407,8.513A19.963,19.963,0,0,0,0,25.96a5.6,5.6,0,0,0,11.208,0V11.4a5.581,5.581,0,0,0-.8-2.888" transform="translate(0 -5.918)" fill="orange"/>
        <rect id="Rectangle_1" data-name="Rectangle 1" width="11.208" height="20.056" transform="translate(59.437 20.042)" fill="#0f276b"/>
        <circle id="Ellipse_1" data-name="Ellipse 1" cx="5.604" cy="5.604" r="5.604" transform="translate(59.437 34.48)" fill="#0f276b"/>
        <path id="Path_4" data-name="Path 4" d="M121.537,20.043h0c.009-9.967,15.009-12.363,18.112-2.6a8.539,8.539,0,0,1,.4,2.6h11.208A20.21,20.21,0,0,0,130.835,0a20.688,20.688,0,0,0-14.883,6.253Z" transform="translate(-80.611 -0.001)" fill="#c02685"/>
        <path id="Path_5" data-name="Path 5" d="M200.614,47.371a5.6,5.6,0,1,0,5.6,5.6,5.6,5.6,0,0,0-5.6-5.6" transform="translate(-135.573 -32.933)" fill="#c02685"/>
        <rect id="Rectangle_2" data-name="Rectangle 2" width="11.208" height="20.056" transform="translate(29.719 20.042)" fill="#db1b1a"/>
        <path id="Path_6" data-name="Path 6" d="M107.1,26.462a20,20,0,0,0-3.967-5.945,20.241,20.241,0,0,0-2.071,2.511,19.671,19.671,0,0,0-3.551,11.277,5.6,5.6,0,1,0,11.208,0A19.738,19.738,0,0,0,107.1,26.462Z" transform="translate(-67.787 -14.264)" fill="#db1b1a"/>
        <path id="Path_7" data-name="Path 7" d="M108.714,131.513a5.6,5.6,0,1,1-11.208,0" transform="translate(-67.787 -91.429)" fill="#db1b1a"/>
        <path id="Path_8" data-name="Path 8" d="M254.8,104.854c3.127,2.051,6.151,3.479,10.308,3.479,2.481,0,5.406-.607,5.407-3.087h11.208c0,7.847-6.132,14.295-16.615,14.295-6.3,0-11.337-1.964-16.453-5.315Z" transform="translate(-172.869 -72.896)" fill="orange"/>
        <circle id="Ellipse_2" data-name="Ellipse 2" cx="5.604" cy="5.604" r="5.604" transform="translate(72.732 31.672) rotate(-5.655)" fill="orange"/>
        <path id="Path_9" data-name="Path 9" d="M278.978,65.141c.008-12.879-16.214-14.38-19.9-15.678-.839-.294-2.782-1.1-3.111-1.919a1.036,1.036,0,0,1-.055-.379l-11.207.036c.022,8.215,6.865,12.184,14.909,14.012,1.789.378,7.447,1.7,8.09,3.436a1.468,1.468,0,0,1,.066.492Z" transform="translate(-170.121 -32.79)" fill="#ef5314"/>
        <circle id="Ellipse_3" data-name="Ellipse 3" cx="5.604" cy="5.604" r="5.604" transform="translate(97.124 27.327) rotate(-5.655)" fill="#ef5314"/>
        <path id="Path_10" data-name="Path 10" d="M274.03,3.909A41.369,41.369,0,0,0,268.76,1.6c-11.623-4.055-24.057.54-24.057,12.8l11.208.093c0-1.556.236-3.091,4.716-3.091,5.458,0,7.722,3.1,10.824,3.1Z" transform="translate(-170.12 -0.109)" fill="#20acc0"/>
        <path id="Path_11" data-name="Path 11" d="M250.308,28.741a5.6,5.6,0,0,0-5.6,5.6v.047a5.6,5.6,0,0,0,5.6,5.557h.043a5.6,5.6,0,0,0-.042-11.207" transform="translate(-170.121 -19.981)" fill="#20acc0"/>
        <circle id="Ellipse_4" data-name="Ellipse 4" cx="5.604" cy="5.604" r="5.604" transform="translate(95.731 3.173)" fill="#20acc0"/>
        <path id="Path_12" data-name="Path 12" d="M17,180.531l-4.321,6a.447.447,0,0,1-.386.212h-.038a.436.436,0,0,1-.405-.212l-4.321-5.98v11.093a.473.473,0,0,1-.945,0v-12.5a.438.438,0,0,1,.193-.366c0-.02.02-.02.039-.039a.486.486,0,0,1,.656.116l4.8,6.655,4.784-6.655a.482.482,0,0,1,.656-.116.973.973,0,0,1,.135.154.631.631,0,0,1,.077.251v12.5a.47.47,0,0,1-.463.463.457.457,0,0,1-.463-.463Z" transform="translate(-4.577 -124.205)" fill="#5a5b5e"/>
        <path id="Path_13" data-name="Path 13" d="M57.09,196.511a4.575,4.575,0,0,1,9.144-.347v.077a.437.437,0,0,1-.463.424H58.016a3.718,3.718,0,0,0,3.665,3.627,3.554,3.554,0,0,0,3.048-1.717.45.45,0,0,1,.617-.155.492.492,0,0,1,.155.656,4.506,4.506,0,0,1-3.82,2.141,4.653,4.653,0,0,1-4.591-4.707m.984-.752h7.157a3.649,3.649,0,0,0-3.55-3.067,3.691,3.691,0,0,0-3.607,3.067" transform="translate(-39.69 -133.317)" fill="#5a5b5e"/>
        <path id="Path_14" data-name="Path 14" d="M98.292,178.936a.473.473,0,0,1,.945,0v12.578a.473.473,0,0,1-.945,0Z" transform="translate(-68.334 -124.076)" fill="#5a5b5e"/>
        <path id="Path_15" data-name="Path 15" d="M114.663,183.163a.5.5,0,0,1-.463.463h-1.215v6.887a.739.739,0,0,0,.695.695.535.535,0,0,1,.482.482.517.517,0,0,1-.482.463,1.607,1.607,0,0,1-1.659-1.64v-6.887h-1.177c-.463,0-.463-.232-.463-.463s0-.463.463-.463h1.177v-3.511a.5.5,0,0,1,.463-.463.52.52,0,0,1,.5.463V182.7H114.2a.5.5,0,0,1,.463.463" transform="translate(-76.737 -124.252)" fill="#5a5b5e"/>
        <path id="Path_16" data-name="Path 16" d="M156.735,187.74a1.006,1.006,0,0,1,1.408-.135,6.292,6.292,0,0,0,3.685,1.486,4.158,4.158,0,0,0,2.411-.714,1.736,1.736,0,0,0,.83-1.389,1.1,1.1,0,0,0-.174-.617,1.818,1.818,0,0,0-.579-.578,7.715,7.715,0,0,0-2.643-.907h-.038a10.432,10.432,0,0,1-2.489-.753,4.149,4.149,0,0,1-1.794-1.5,2.961,2.961,0,0,1-.443-1.582,3.565,3.565,0,0,1,1.543-2.817,5.7,5.7,0,0,1,3.337-1.023,7.557,7.557,0,0,1,4.205,1.543.993.993,0,0,1,.27,1.37.974.974,0,0,1-1.37.289,5.6,5.6,0,0,0-3.106-1.235,3.685,3.685,0,0,0-2.161.656,1.535,1.535,0,0,0-.733,1.216.935.935,0,0,0,.135.54,1.863,1.863,0,0,0,.521.5,6.648,6.648,0,0,0,2.411.849H162a11.362,11.362,0,0,1,2.662.81,4.507,4.507,0,0,1,1.929,1.6,3.129,3.129,0,0,1,.463,1.639,3.733,3.733,0,0,1-1.659,2.99,6.031,6.031,0,0,1-3.569,1.1,8.315,8.315,0,0,1-4.939-1.929,1.026,1.026,0,0,1-.154-1.408" transform="translate(-108.817 -123.196)" fill="#5a5b5e"/>
        <path id="Path_17" data-name="Path 17" d="M201.907,183.392a1.087,1.087,0,0,1-1.08,1.061h-.482v5.382a1.062,1.062,0,0,1,1.061,1.08,1.046,1.046,0,0,1-1.061,1.061,2.149,2.149,0,0,1-2.141-2.141v-5.382h-.56a1.058,1.058,0,0,1-1.061-1.061,1.046,1.046,0,0,1,1.061-1.061h.56v-2.8a1.062,1.062,0,0,1,1.08-1.061,1.046,1.046,0,0,1,1.061,1.061v2.8h.482a1.074,1.074,0,0,1,1.08,1.061" transform="translate(-136.666 -124.076)" fill="#5a5b5e"/>
        <path id="Path_18" data-name="Path 18" d="M228.507,200.777a4.035,4.035,0,0,1-4.013-4.013v-4.611a1.042,1.042,0,0,1,1.023-1.022,1.029,1.029,0,0,1,1.023,1.022v4.611a1.951,1.951,0,0,0,1.967,1.968,2,2,0,0,0,2.026-1.968v-4.611a1.012,1.012,0,0,1,1-1.022,1.073,1.073,0,0,1,1.042,1.022v4.611a4.072,4.072,0,0,1-4.07,4.013" transform="translate(-156.07 -132.877)" fill="#5a5b5e"/>
        <path id="Path_19" data-name="Path 19" d="M271.212,190.935a1.05,1.05,0,0,1-1.041,1.042,1.039,1.039,0,0,1-1.023-.83,4.707,4.707,0,0,1-2.624.83,4.825,4.825,0,0,1,0-9.646,4.565,4.565,0,0,1,2.585.81v-3.627a1.051,1.051,0,0,1,2.1,0v11.42Zm-4.688-6.5a2.5,2.5,0,0,0-1.814.791,2.8,2.8,0,0,0,0,3.858,2.5,2.5,0,0,0,1.814.791,2.467,2.467,0,0,0,1.813-.791,2.8,2.8,0,0,0,0-3.858,2.466,2.466,0,0,0-1.813-.791" transform="translate(-182.032 -124.076)" fill="#5a5b5e"/>
        <path id="Path_20" data-name="Path 20" d="M307.844,179.92a1.042,1.042,0,0,1-1.042,1.061,1.054,1.054,0,0,1-1.041-1.061v-.405a1.038,1.038,0,0,1,1.041-1.042,1.026,1.026,0,0,1,1.042,1.042Zm0,3.492v7.523a1.026,1.026,0,0,1-1.042,1.042,1.037,1.037,0,0,1-1.041-1.042v-7.523a1.03,1.03,0,0,1,1.041-1.061,1.019,1.019,0,0,1,1.042,1.061" transform="translate(-212.568 -124.076)" fill="#5a5b5e"/>
        <path id="Path_21" data-name="Path 21" d="M323.356,199.37a4.816,4.816,0,0,1-1.331-3.4,4.978,4.978,0,0,1,1.331-3.376,4.506,4.506,0,0,1,3.318-1.466A4.266,4.266,0,0,1,329.9,192.6a4.82,4.82,0,0,1,1.35,3.376,4.669,4.669,0,0,1-1.35,3.4,4.267,4.267,0,0,1-3.222,1.466,4.507,4.507,0,0,1-3.318-1.466m.772-3.4a3.119,3.119,0,0,0,.695,2.045,2.611,2.611,0,0,0,1.852.714,2.527,2.527,0,0,0,1.775-.714,2.965,2.965,0,0,0,.752-2.045,2.9,2.9,0,0,0-.752-2.006,2.725,2.725,0,0,0-1.775-.733,2.8,2.8,0,0,0-1.852.733,3.049,3.049,0,0,0-.695,2.006" transform="translate(-223.875 -132.878)" fill="#5a5b5e"/>
      </g>
    </g>
  </g>
</svg>
