<?xml version="1.0" encoding="UTF-8"?>
<svg version="1.1" xmlns="http://www.w3.org/2000/svg" width="300" height="110">
<path d="M0 0 C1.91015625 0.23046875 1.91015625 0.23046875 3.91015625 2.23046875 C4.22900391 4.29345703 4.22900391 4.29345703 4.32421875 6.80078125 C4.36289062 7.69667969 4.4015625 8.59257812 4.44140625 9.515625 C4.4878125 10.92134766 4.4878125 10.92134766 4.53515625 12.35546875 C4.57382812 13.30035156 4.6125 14.24523438 4.65234375 15.21875 C4.74676971 17.5557925 4.83234019 19.89282376 4.91015625 22.23046875 C5.60496094 21.41191406 6.29976562 20.59335937 7.015625 19.75 C10.45144487 16.75930659 11.77047709 16.67334352 16.22265625 16.91796875 C17.82560547 16.98564453 17.82560547 16.98564453 19.4609375 17.0546875 C20.67330078 17.14169922 20.67330078 17.14169922 21.91015625 17.23046875 C21.36030853 21.10558602 19.63460294 22.82623381 16.84765625 25.48046875 C16.11417969 26.186875 15.38070312 26.89328125 14.625 27.62109375 C14.05910156 28.1521875 13.49320313 28.68328125 12.91015625 29.23046875 C15.75690797 32.62504898 18.58169798 35.97719494 21.78515625 39.04296875 C23.91015625 41.23046875 23.91015625 41.23046875 23.91015625 43.23046875 C12.42495446 44.15064812 12.42495446 44.15064812 8.7109375 41.89453125 C7.09765625 40.23046875 7.09765625 40.23046875 4.91015625 37.23046875 C3.92015625 40.20046875 3.92015625 40.20046875 2.91015625 43.23046875 C-3.35984375 43.23046875 -9.62984375 43.23046875 -16.08984375 43.23046875 C-16.41984375 37.62046875 -16.74984375 32.01046875 -17.08984375 26.23046875 C-18.73984375 26.23046875 -20.38984375 26.23046875 -22.08984375 26.23046875 C-23.58529356 29.22136838 -23.1438983 31.97199221 -23.08984375 35.29296875 C-23.05228525 37.60516373 -23.04307708 39.91844169 -23.08984375 42.23046875 C-24.08984375 43.23046875 -24.08984375 43.23046875 -28.05883789 43.34399414 C-29.83089982 43.34383495 -31.60296635 43.3381366 -33.375 43.328125 C-34.30581894 43.32671005 -35.23663788 43.3252951 -36.19566345 43.32383728 C-39.18125566 43.31822047 -42.16677404 43.30566515 -45.15234375 43.29296875 C-47.17122288 43.28795591 -49.19010318 43.28339263 -51.20898438 43.27929688 C-56.16929947 43.26824558 -61.12955907 43.2509697 -66.08984375 43.23046875 C-66.41984375 38.94046875 -66.74984375 34.65046875 -67.08984375 30.23046875 C-68.48598779 32.70946089 -69.88178197 35.18864885 -71.27734375 37.66796875 C-71.68791016 38.39701416 -72.09847656 39.12605957 -72.52148438 39.87719727 C-75.11149734 44.47978942 -77.68215956 49.09210219 -80.21484375 53.7265625 C-81.08984375 55.23046875 -81.08984375 55.23046875 -82.08984375 56.23046875 C-83.77593341 56.30252386 -85.46485034 56.31432943 -87.15234375 56.29296875 C-88.07144531 56.28394531 -88.99054688 56.27492187 -89.9375 56.265625 C-90.64777344 56.25402344 -91.35804688 56.24242187 -92.08984375 56.23046875 C-91.58135835 51.44223122 -90.19258246 48.60883379 -87.58984375 44.60546875 C-85.53459036 40.69116755 -84.85575696 39.10904129 -86.0078125 34.78515625 C-87.77110918 31.49211213 -89.46712181 28.89000082 -92.08984375 26.23046875 C-95.8106068 25.0596572 -95.8106068 25.0596572 -99.08984375 26.23046875 C-99.74984375 26.89046875 -100.40984375 27.55046875 -101.08984375 28.23046875 C-100.80001106 31.53730341 -100.80001106 31.53730341 -99.08984375 34.23046875 C-96.75686942 34.27139812 -94.4227915 34.27288598 -92.08984375 34.23046875 C-91.09984375 36.54046875 -90.10984375 38.85046875 -89.08984375 41.23046875 C-92.60196037 43.86455622 -95.53009302 44.80276592 -99.953125 44.66796875 C-103.86854806 43.86627335 -106.92746241 41.58543358 -110.08984375 39.23046875 C-110.41984375 40.55046875 -110.74984375 41.87046875 -111.08984375 43.23046875 C-111.86070312 43.21886719 -112.6315625 43.20726562 -113.42578125 43.1953125 C-114.42867188 43.18628906 -115.4315625 43.17726562 -116.46484375 43.16796875 C-117.96144531 43.15056641 -117.96144531 43.15056641 -119.48828125 43.1328125 C-122.07416828 43.05040273 -122.07416828 43.05040273 -124.08984375 44.23046875 C-130.17346645 44.82690235 -133.14560478 43.4593595 -138.08984375 40.23046875 C-138.21939453 41.22626953 -138.21939453 41.22626953 -138.3515625 42.2421875 C-139.28198938 48.08936561 -140.20461755 51.44441845 -145.08984375 55.23046875 C-149.48086957 57.42598166 -155.29737117 56.56238969 -160.08984375 56.23046875 C-164.35454179 54.71252538 -165.58920163 53.98143194 -168.08984375 50.23046875 C-168.08984375 49.24046875 -168.08984375 48.25046875 -168.08984375 47.23046875 C-166.10984375 46.24046875 -164.12984375 45.25046875 -162.08984375 44.23046875 C-163.40984375 42.91046875 -164.72984375 41.59046875 -166.08984375 40.23046875 C-167.22421875 40.89046875 -168.35859375 41.55046875 -169.52734375 42.23046875 C-174.08334659 44.50039215 -178.06360975 45.06180403 -183.08984375 44.23046875 C-186.15234375 42.73046875 -186.15234375 42.73046875 -188.08984375 41.23046875 C-188.74984375 41.89046875 -189.40984375 42.55046875 -190.08984375 43.23046875 C-192.52001953 43.45751953 -192.52001953 43.45751953 -195.53515625 43.42578125 C-196.50469238 43.42078613 -197.47422852 43.41579102 -198.47314453 43.41064453 C-199.70790527 43.39243652 -200.94266602 43.37422852 -202.21484375 43.35546875 C-206.13359375 43.31421875 -210.05234375 43.27296875 -214.08984375 43.23046875 C-214.08984375 29.70046875 -214.08984375 16.17046875 -214.08984375 2.23046875 C-210.45984375 2.23046875 -206.82984375 2.23046875 -203.08984375 2.23046875 C-203.08984375 12.46046875 -203.08984375 22.69046875 -203.08984375 33.23046875 C-199.78984375 33.23046875 -196.48984375 33.23046875 -193.08984375 33.23046875 C-193.15171875 32.17859375 -193.21359375 31.12671875 -193.27734375 30.04296875 C-193.02224223 24.85590455 -191.45781305 22.67890683 -187.96484375 18.98046875 C-184.05612563 16.60124902 -180.64420759 16.0124821 -176.08984375 16.23046875 C-172.50406336 17.17944655 -169.74125852 18.57905398 -167.08984375 21.23046875 C-166.45046875 20.59109375 -165.81109375 19.95171875 -165.15234375 19.29296875 C-160.64169665 16.25518601 -155.93390252 15.73275846 -150.58984375 16.66796875 C-149.76484375 16.85359375 -148.93984375 17.03921875 -148.08984375 17.23046875 C-145.74819804 17.23046875 -143.41766272 17.1686124 -141.078125 17.0703125 C-139.08984375 17.23046875 -139.08984375 17.23046875 -137.08984375 19.23046875 C-135.94515625 18.45703125 -135.94515625 18.45703125 -134.77734375 17.66796875 C-130.35585822 15.9443388 -127.54863018 16.31973813 -122.92578125 16.90234375 C-118.95772889 17.36145725 -115.0805566 17.29589027 -111.08984375 17.23046875 C-110.59484375 19.21046875 -110.59484375 19.21046875 -110.08984375 21.23046875 C-109.28546875 20.59109375 -108.48109375 19.95171875 -107.65234375 19.29296875 C-103.60739299 16.62783764 -99.85114442 16.32703179 -95.08984375 16.23046875 C-94.15011719 16.18277344 -93.21039063 16.13507812 -92.2421875 16.0859375 C-89.24849691 16.10608347 -86.92284399 16.24722461 -84.08984375 17.23046875 C-81.69968858 19.97166183 -80.33311075 22.83037391 -79.08984375 26.23046875 C-76.51989301 24.94549338 -76.18549912 23.73134502 -74.96484375 21.16796875 C-74.61164063 20.43449219 -74.2584375 19.70101562 -73.89453125 18.9453125 C-73.62898437 18.37941406 -73.3634375 17.81351563 -73.08984375 17.23046875 C-70.77984375 17.23046875 -68.46984375 17.23046875 -66.08984375 17.23046875 C-66.08984375 12.28046875 -66.08984375 7.33046875 -66.08984375 2.23046875 C-58.375 2.1328125 -58.375 2.1328125 -56.08984375 2.23046875 C-55.08984375 3.23046875 -55.08984375 3.23046875 -54.97631836 6.09790039 C-54.98155518 7.34949951 -54.98679199 8.60109863 -54.9921875 9.890625 C-54.99430992 10.8873246 -54.99430992 10.8873246 -54.99647522 11.90415955 C-55.00208857 14.03380774 -55.01464321 16.16335214 -55.02734375 18.29296875 C-55.03235704 19.73372244 -55.03692024 21.17447778 -55.04101562 22.61523438 C-55.0520623 26.15367977 -55.06933583 29.69206414 -55.08984375 33.23046875 C-51.45984375 33.23046875 -47.82984375 33.23046875 -44.08984375 33.23046875 C-44.08984375 27.95046875 -44.08984375 22.67046875 -44.08984375 17.23046875 C-41.82947266 17.24787109 -41.82947266 17.24787109 -39.5234375 17.265625 C-37.52474083 17.27500855 -35.52604281 17.28410815 -33.52734375 17.29296875 C-32.53669922 17.30134766 -31.54605469 17.30972656 -30.52539062 17.31835938 C-26.32031117 17.33232974 -22.46141377 17.29848105 -18.3125 16.5390625 C-14.02562376 16.12856162 -11.88838521 17.29243739 -8.08984375 19.23046875 C-8.02925781 17.94269531 -7.96867188 16.65492187 -7.90625 15.328125 C-7.82186128 13.64972716 -7.73721245 11.97134239 -7.65234375 10.29296875 C-7.61302734 9.44283203 -7.57371094 8.59269531 -7.53320312 7.71679688 C-7.49130859 6.90791016 -7.44941406 6.09902344 -7.40625 5.265625 C-7.35126343 4.14232788 -7.35126343 4.14232788 -7.29516602 2.99633789 C-6.81684337 -1.11746439 -3.43947456 0.06866465 0 0 Z M-179.08984375 23.23046875 C-180.07984375 24.22046875 -181.06984375 25.21046875 -182.08984375 26.23046875 C-180.10984375 25.90046875 -178.12984375 25.57046875 -176.08984375 25.23046875 C-177.07984375 24.57046875 -178.06984375 23.91046875 -179.08984375 23.23046875 Z M-156.77734375 26.41796875 C-158.53898712 28.85071436 -158.54177021 30.29294677 -158.08984375 33.23046875 C-155.33512981 35.48209477 -155.33512981 35.48209477 -152.52734375 35.16796875 C-149.84040753 34.44561642 -149.84040753 34.44561642 -148.77734375 31.66796875 C-148.55046875 30.86359375 -148.32359375 30.05921875 -148.08984375 29.23046875 C-149.90206909 27.16796935 -149.90206909 27.16796935 -152.08984375 25.23046875 C-155.02484833 24.94272205 -155.02484833 24.94272205 -156.77734375 26.41796875 Z M-128.77734375 26.41796875 C-130.53898712 28.85071436 -130.54177021 30.29294677 -130.08984375 33.23046875 C-127.33512981 35.48209477 -127.33512981 35.48209477 -124.52734375 35.16796875 C-121.84040753 34.44561642 -121.84040753 34.44561642 -120.77734375 31.66796875 C-120.55046875 30.86359375 -120.32359375 30.05921875 -120.08984375 29.23046875 C-121.90206909 27.16796935 -121.90206909 27.16796935 -124.08984375 25.23046875 C-127.02484833 24.94272205 -127.02484833 24.94272205 -128.77734375 26.41796875 Z M-182.08984375 32.23046875 C-181.75984375 33.22046875 -181.42984375 34.21046875 -181.08984375 35.23046875 C-177.28039482 35.31906059 -173.77135575 35.28232932 -170.08984375 34.23046875 C-169.75984375 33.57046875 -169.42984375 32.91046875 -169.08984375 32.23046875 C-173.37984375 32.23046875 -177.66984375 32.23046875 -182.08984375 32.23046875 Z M-155.71484375 43.73046875 C-156.94074219 43.8696875 -156.94074219 43.8696875 -158.19140625 44.01171875 C-158.81789062 44.08390625 -159.444375 44.15609375 -160.08984375 44.23046875 C-158.78574063 45.78518805 -158.78574063 45.78518805 -157.08984375 47.23046875 C-153.96435358 47.48095511 -153.96435358 47.48095511 -151.08984375 47.23046875 C-150.42984375 45.91046875 -149.76984375 44.59046875 -149.08984375 43.23046875 C-151.33359327 43.23046875 -153.48552918 43.47568994 -155.71484375 43.73046875 Z " fill="#020202" transform="translate(256.08984375,17.76953125)"/>
<path d="M0 0 C0.96204234 0.00291284 1.92408467 0.00582568 2.91527981 0.00882679 C3.92885522 0.00797237 4.94243063 0.00711794 5.98672044 0.00623763 C9.41087669 0.00457977 12.83498482 0.01010917 16.25913662 0.01555592 C18.70260279 0.01583775 21.14606905 0.01568013 23.58953518 0.01511341 C28.86446489 0.01488509 34.1393794 0.01773648 39.41430515 0.02335125 C47.04104415 0.0314641 54.66777716 0.03408125 62.29452001 0.03533924 C74.66716904 0.0375301 87.03981148 0.04419111 99.41245693 0.05364186 C111.43426649 0.0628151 123.45607427 0.06989636 135.47788662 0.07414967 C136.2183988 0.07441239 136.95891098 0.07467512 137.72186292 0.0749458 C141.43664195 0.0762508 145.15142098 0.07751452 148.86620003 0.0787577 C179.70413355 0.08913137 210.54205889 0.10682473 241.37998623 0.12908131 C243.71927194 7.70943845 243.71927194 7.70943845 242.37998623 12.12908131 C240.72998623 12.12908131 239.07998623 12.12908131 237.37998623 12.12908131 C237.37998623 10.14908131 237.37998623 8.16908131 237.37998623 6.12908131 C158.17998623 6.12908131 78.97998623 6.12908131 -2.62001377 6.12908131 C-2.29001377 35.82908131 -1.96001377 65.52908131 -1.62001377 96.12908131 C77.24998623 96.12908131 156.11998623 96.12908131 237.37998623 96.12908131 C237.37998623 94.14908131 237.37998623 92.16908131 237.37998623 90.12908131 C239.02998623 90.12908131 240.67998623 90.12908131 242.37998623 90.12908131 C242.57476362 91.75322509 242.76058081 93.37844554 242.94248623 95.00408131 C243.04690029 95.90900318 243.15131435 96.81392506 243.25889248 97.74626881 C243.37998623 100.12908131 243.37998623 100.12908131 242.37998623 102.12908131 C159.87998623 102.12908131 77.37998623 102.12908131 -7.62001377 102.12908131 C-7.62001377 0.01752199 -7.62001377 0.01752199 0 0 Z " fill="#060506" transform="translate(11.620013773441315,2.8709186911582947)"/>
<path d="M0 0 C12.29390104 -0.40529344 12.29390104 -0.40529344 17 3 C19.29518219 5.3743264 19.96098229 6.42774033 20.1875 9.75 C20.0946875 10.86375 20.0946875 10.86375 20 12 C20.66 12 21.32 12 22 12 C22.0928125 11.1028125 22.0928125 11.1028125 22.1875 10.1875 C23 8 23 8 25.125 6.1875 C28.91506841 4.62203696 31.06935005 4.92800456 35 6 C37.86942113 8.26533247 38.83907612 9.51722837 40 13 C39.34 13.66 38.68 14.32 38 15 C38.66 16.32 39.32 17.64 40 19 C38.40384874 21.59374579 37.0887054 23.58768179 34.1640625 24.6953125 C30.17077404 25.41441042 28.34328855 25.17164428 24.625 23.3125 C22.25220248 21.22217837 21.0478939 19.93410292 20 17 C19.525625 17.94875 19.05125 18.8975 18.5625 19.875 C16.17181202 23.45255435 13.5878933 24.09057954 9.51171875 24.96875 C7 25 7 25 0 23 C0 15.41 0 7.82 0 0 Z M6 6 C6 10.29 6 14.58 6 19 C11.74813012 18.63936201 11.74813012 18.63936201 14 16 C14.47899838 11.31683466 14.47899838 11.31683466 12.8125 7.0625 C10.6312462 5.57856708 10.6312462 5.57856708 6 6 Z M28 11 C27.67 11.66 27.34 12.32 27 13 C28.65 12.67 30.3 12.34 32 12 C30.68 11.67 29.36 11.34 28 11 Z M27 16 C28 18 28 18 28 18 Z M33 16 C31.35 16.66 29.7 17.32 28 18 C28 18.33 28 18.66 28 19 C29.65 19 31.3 19 33 19 C33 18.01 33 17.02 33 16 Z " fill="#13252E" transform="translate(190,65)"/>
<path d="M0 0 C3.06693371 2.54117365 4.96352041 4.73152603 5.40234375 8.80859375 C5.45596528 12.05567518 5.21687114 14.72438659 4.1875 17.8125 C5.1775 18.4725 6.1675 19.1325 7.1875 19.8125 C6.5275 21.1325 5.8675 22.4525 5.1875 23.8125 C4.07375 23.626875 2.96 23.44125 1.8125 23.25 C-1.63818861 22.49569343 -1.63818861 22.49569343 -3.8125 23.8125 C-7.70183523 24.25446991 -9.52844267 23.96845304 -13 22.0625 C-18.52965408 17.63877674 -18.52965408 17.63877674 -19.12890625 13.76953125 C-19.41237232 8.31052333 -18.52434307 5.03987683 -14.8125 0.8125 C-10.57026936 -2.52068122 -4.71838924 -1.99220879 0 0 Z M-11.6875 6.6875 C-12.96846257 8.7063588 -12.96846257 8.7063588 -12.8125 10.8125 C-10.859375 11.30078125 -8.90625 11.7890625 -6.953125 12.27734375 C-4.90625 12.7890625 -2.859375 13.30078125 -0.8125 13.8125 C-1.14210216 8.79714948 -1.14210216 8.79714948 -3.8125 4.8125 C-8.22995024 4.21127415 -8.22995024 4.21127415 -11.6875 6.6875 Z " fill="#54A87E" transform="translate(287.8125,66.1875)"/>
<path d="M0 0 C0.80695313 0.09796875 1.61390625 0.1959375 2.4453125 0.296875 C4.6875 0.625 4.6875 0.625 7.375 1.25 C9.81915443 1.78646172 9.81915443 1.78646172 12.75 1 C15.6875 0.625 15.6875 0.625 18 1.875 C21.26549246 5.26143662 20.79415292 8.85305498 20.75 13.3125 C20.74097656 14.49199219 20.73195313 15.67148438 20.72265625 16.88671875 C20.71105469 17.79035156 20.69945312 18.69398437 20.6875 19.625 C18.7075 19.625 16.7275 19.625 14.6875 19.625 C14.3575 15.665 14.0275 11.705 13.6875 7.625 C12.6975 7.295 11.7075 6.965 10.6875 6.625 C10.3575 10.915 10.0275 15.205 9.6875 19.625 C8.0375 19.625 6.3875 19.625 4.6875 19.625 C4.3575 15.335 4.0275 11.045 3.6875 6.625 C2.3675 6.625 1.0475 6.625 -0.3125 6.625 C-0.6425 10.915 -0.9725 15.205 -1.3125 19.625 C-2.9625 19.625 -4.6125 19.625 -6.3125 19.625 C-6.3125 13.355 -6.3125 7.085 -6.3125 0.625 C-3.85994998 -0.60127501 -2.69588039 -0.33528596 0 0 Z " fill="#11232C" transform="translate(238.3125,69.375)"/>
<path d="M0 0 C1.32 0 2.64 0 4 0 C4 1.65 4 3.3 4 5 C5.27875 5 6.5575 5 7.875 5 C11.25 5 14.625 5 18 5 C17.39254603 9.85963179 15.27241033 13.7405518 13 18 C10.5625 17.625 10.5625 17.625 8 17 C7.67 16.34 7.34 15.68 7 15 C4.67843403 14.59270772 2.3431213 14.25561323 0 14 C0 9.38 0 4.76 0 0 Z " fill="#0A090A" transform="translate(167,76)"/>
<path d="M0 0 C2.375 0.6875 2.375 0.6875 5 2 C6.1875 4.5625 6.1875 4.5625 7 7 C9.3078491 8.15392455 11.47230331 8.53437166 14 9 C14.33 8.34 14.66 7.68 15 7 C17.5625 6.375 17.5625 6.375 20 6 C20.33 6.66 20.66 7.32 21 8 C20.0625 10.625 20.0625 10.625 19 13 C18.01 13 17.02 13 16 13 C16 13.66 16 14.32 16 15 C13.13391871 16.43304064 11.18699217 16.30644155 8 16 C4.9396667 14.2344231 2.49412245 12.49412245 0 10 C-0.1953125 7.6171875 -0.1953125 7.6171875 -0.125 4.875 C-0.10695313 3.96492188 -0.08890625 3.05484375 -0.0703125 2.1171875 C-0.04710937 1.41851562 -0.02390625 0.71984375 0 0 Z " fill="#4EB27F" transform="translate(270,74)"/>
<path d="M0 0 C3.5 0.25 3.5 0.25 5.5 2.25 C5.75 5.75 5.75 5.75 5.5 9.25 C3.5 11.25 3.5 11.25 0 11.5 C-3.5 11.25 -3.5 11.25 -5.5 9.25 C-5.75 5.75 -5.75 5.75 -5.5 2.25 C-3.5 0.25 -3.5 0.25 0 0 Z " fill="#040404" transform="translate(217.5,19.75)"/>
<path d="M0 0 C0.66 0.33 1.32 0.66 2 1 C1.979375 1.804375 1.95875 2.60875 1.9375 3.4375 C1.70366379 5.93354885 1.70366379 5.93354885 3 7 C3.07325168 9.86267567 3.09238205 12.700719 3.0625 15.5625 C3.05798828 16.36880859 3.05347656 17.17511719 3.04882812 18.00585938 C3.03700518 20.00393756 3.01906914 22.00197783 3 24 C1.35 24 -0.3 24 -2 24 C-2 16.41 -2 8.82 -2 1 C-1.34 0.67 -0.68 0.34 0 0 Z " fill="#519574" transform="translate(264,65)"/>
<path d="M0 0 C4.875 2.625 4.875 2.625 6 6 C6.06937062 8.22818441 6.08457084 10.45834524 6.0625 12.6875 C6.05347656 13.86699219 6.04445313 15.04648438 6.03515625 16.26171875 C6.02355469 17.16535156 6.01195312 18.06898437 6 19 C4.02 19 2.04 19 0 19 C-0.33 14.71 -0.66 10.42 -1 6 C0.32 6 1.64 6 3 6 C3 5.01 3 4.02 3 3 C2.01 3 1.02 3 0 3 C0 2.01 0 1.02 0 0 Z " fill="#1C3136" transform="translate(253,70)"/>
<path d="M0 0 C1.5 1.375 1.5 1.375 3 3 C3 3.66 3 4.32 3 5 C5.3078491 6.15392455 7.47230331 6.53437166 10 7 C10.33 6.34 10.66 5.68 11 5 C13.5625 4.375 13.5625 4.375 16 4 C17 6 17 6 16.25 8.5625 C15 11 15 11 12 12 C9.66700175 12.03954234 7.33291811 12.04401732 5 12 C5 10.68 5 9.36 5 8 C4.01 8 3.02 8 2 8 C-0.1519437 4.77208445 -0.20086443 3.71599191 0 0 Z " fill="#46B97C" transform="translate(274,76)"/>
<path d="M0 0 C0 0.99 0 1.98 0 3 C0.99 3 1.98 3 3 3 C3.33 4.32 3.66 5.64 4 7 C1.36 6.67 -1.28 6.34 -4 6 C-4 6.66 -4 7.32 -4 8 C-5.32 7.67 -6.64 7.34 -8 7 C-8 6.01 -8 5.02 -8 4 C-8.66 3.67 -9.32 3.34 -10 3 C-7.02931146 0.02931146 -4.09966187 0 0 0 Z " fill="#0F272E" transform="translate(253,70)"/>
<path d="M0 0 C3.96 0 7.92 0 12 0 C12 0.33 12 0.66 12 1 C5.375 2.125 5.375 2.125 2 1 C1.97309156 3.62506802 1.95320596 6.24986173 1.9375 8.875 C1.92912109 9.62136719 1.92074219 10.36773437 1.91210938 11.13671875 C1.79311916 15.19845578 1.79311916 15.19845578 3 19 C2.67 19.99 2.34 20.98 2 22 C2.66 22.66 3.32 23.32 4 24 C2.68 23.67 1.36 23.34 0 23 C0 15.41 0 7.82 0 0 Z " fill="#0F181E" transform="translate(190,65)"/>
<path d="M0 0 C0.99 0 1.98 0 3 0 C3 5.28 3 10.56 3 16 C2.01 16 1.02 16 0 16 C0 10.72 0 5.44 0 0 Z " fill="#49B480" transform="translate(263,72)"/>
<path d="M0 0 C1.65322266 0.01740234 1.65322266 0.01740234 3.33984375 0.03515625 C4.99693359 0.04869141 4.99693359 0.04869141 6.6875 0.0625 C7.54214844 0.07410156 8.39679688 0.08570312 9.27734375 0.09765625 C9.60734375 1.08765625 9.93734375 2.07765625 10.27734375 3.09765625 C4.33734375 3.59265625 4.33734375 3.59265625 -1.72265625 4.09765625 C-1.72265625 4.75765625 -1.72265625 5.41765625 -1.72265625 6.09765625 C-2.38265625 6.09765625 -3.04265625 6.09765625 -3.72265625 6.09765625 C-3.76537725 4.4315372 -3.76329457 2.7638274 -3.72265625 1.09765625 C-2.72265625 0.09765625 -2.72265625 0.09765625 0 0 Z " fill="#49B57C" transform="translate(275.72265625,66.90234375)"/>
<path d="M0 0 C0.33 0.99 0.66 1.98 1 3 C1.99 3.66 2.98 4.32 4 5 C3.34 6.32 2.68 7.64 2 9 C-0.9375 8.625 -0.9375 8.625 -4 8 C-4.33 7.34 -4.66 6.68 -5 6 C-4.01 6 -3.02 6 -2 6 C-1.34 4.02 -0.68 2.04 0 0 Z " fill="#4CA47A" transform="translate(291,81)"/>
<path d="M0 0 C2 1.0625 2 1.0625 4 3 C4.25 6.6875 4.25 6.6875 4 10 C3.34 9.34 2.68 8.68 2 8 C1.01 8.495 1.01 8.495 0 9 C0 7.35 0 5.7 0 4 C-0.66 3.67 -1.32 3.34 -2 3 C-1.34 2.01 -0.68 1.02 0 0 Z " fill="#4DB982" transform="translate(288,71)"/>
<path d="M0 0 C1.5 1.375 1.5 1.375 3 3 C3 3.66 3 4.32 3 5 C3.66 5.33 4.32 5.66 5 6 C6.33333333 6.66666667 7.66666667 7.33333333 9 8 C5.98968256 8.93423645 5.13349732 9.04449911 2 8 C-0.1519437 4.77208445 -0.20086443 3.71599191 0 0 Z " fill="#3DAB6D" transform="translate(274,76)"/>
<path d="M0 0 C0 0.66 0 1.32 0 2 C-2.66666667 3.33333333 -5.33333333 4.66666667 -8 6 C-8 5.34 -8 4.68 -8 4 C-8.66 3.67 -9.32 3.34 -10 3 C-7.02931146 0.02931146 -4.09966187 0 0 0 Z " fill="#182B33" transform="translate(253,70)"/>
<path d="M0 0 C0.66 0.66 1.32 1.32 2 2 C1.01 3.98 0.02 5.96 -1 8 C-1.99 7.34 -2.98 6.68 -4 6 C-2.68 4.02 -1.36 2.04 0 0 Z " fill="#040306" transform="translate(182,84)"/>
<path d="M0 0 C-2.00773956 2.00773956 -3.36873617 2.99392854 -6 4 C-8.25 3.625 -8.25 3.625 -10 3 C-6.48812804 0.59185923 -4.27343092 -0.36629408 0 0 Z " fill="#101F27" transform="translate(223,70)"/>
<path d="M0 0 C-0.33 0.99 -0.66 1.98 -1 3 C-4.3 2.67 -7.6 2.34 -11 2 C-6.78370866 -0.10814567 -4.60209225 -0.17700355 0 0 Z " fill="#090909" transform="translate(172,35)"/>
<path d="M0 0 C0.66 0.33 1.32 0.66 2 1 C1.67 2.65 1.34 4.3 1 6 C0.01 5.67 -0.98 5.34 -2 5 C-2 3.68 -2 2.36 -2 1 C-1.34 0.67 -0.68 0.34 0 0 Z " fill="#587C70" transform="translate(264,65)"/>
</svg>
